<svg width="78" height="78" viewBox="0 0 78 78" fill="none" xmlns="http://www.w3.org/2000/svg">
<circle cx="39" cy="39" r="38.5" stroke="#EEEEEE"/>
<path d="M29.5267 36.8064C28.8708 36.8064 28.3381 37.339 28.3381 37.9949C28.3381 38.6508 28.8708 39.1835 29.5267 39.1835C30.1826 39.1835 30.7152 38.6508 30.7152 37.9949C30.7152 37.339 30.1826 36.8064 29.5267 36.8064Z" fill="#5DB534"/>
<path d="M41.2609 39.2416C41.9675 39.2416 42.5402 38.6689 42.5402 37.9623C42.5402 37.2558 41.9675 36.6831 41.2609 36.6831C40.5544 36.6831 39.9817 37.2558 39.9817 37.9623C39.9817 38.6689 40.5544 39.2416 41.2609 39.2416Z" fill="#5DB534"/>
<path d="M51.8834 25H26.6146C24.0654 25 22 27.0654 22 29.6146V44.6122C22 47.1614 24.0654 49.2268 26.6146 49.2268H35.5392L38.5745 56.379C38.5745 56.379 38.7838 57 39.2886 57C39.7933 57 40.0026 56.379 40.0026 56.379L43.0379 49.2268H51.8811C54.4303 49.2268 56.4957 47.1614 56.4957 44.6122V29.6146C56.5004 27.0654 54.4326 25 51.8834 25ZM32.8388 38.2577C32.8248 41 29.9895 41.0791 29.9895 41.0791C28.894 41.0791 28.273 40.3511 28.273 40.3511V40.8465H26.2076V32.3336C26.1983 32.3313 26.1983 32.3313 26.2076 32.329V32.3336C26.3355 32.3546 28.273 32.329 28.273 32.329V35.5853C28.7591 34.7572 30.164 34.7712 30.164 34.7712C33.2202 35.0526 32.8388 38.2577 32.8388 38.2577ZM36.4719 35.0294V40.8581H34.4507V35.0875C34.4507 34.3014 33.4761 34.085 33.4761 34.085V32.0499C36.7045 32.1801 36.4719 35.0294 36.4719 35.0294ZM41.2609 41.0814C39.3909 41.0814 37.8744 39.6859 37.8744 37.9623C37.8744 36.2412 39.3909 34.8433 41.2609 34.8433C43.131 34.8433 44.6475 36.2388 44.6475 37.9623C44.6498 39.6835 43.1333 41.0814 41.2609 41.0814ZM52.3323 41.0814C52.3323 41.0814 52.3626 44.0423 49.3528 44.0423H48.4364V42.1234H48.99C48.99 42.1234 50.2553 42.2397 50.2413 40.2906C50.2413 40.2906 49.9948 41.0791 48.2201 41.0791C48.2201 41.0791 45.7058 40.8977 45.7058 38.4438V37.5134C45.7058 37.5134 45.7639 34.9689 48.5271 34.7665C48.5271 34.7665 49.618 34.6502 50.2855 35.5527V34.927H52.3346V41.0814H52.3323Z" fill="#5DB534"/>
<path d="M49.1202 39.2137C49.8113 39.2137 50.3716 38.6535 50.3716 37.9624C50.3716 37.2713 49.8113 36.711 49.1202 36.711C48.4291 36.711 47.8689 37.2713 47.8689 37.9624C47.8689 38.6535 48.4291 39.2137 49.1202 39.2137Z" fill="#5DB534"/>
</svg>
