<svg width="78" height="78" viewBox="0 0 78 78" fill="none" xmlns="http://www.w3.org/2000/svg">
<circle cx="39" cy="39" r="38.5" stroke="#EEEEEE"/>
<path d="M46.9985 23.0067L42.8489 23C38.1869 23 35.1741 26.091 35.1741 30.8752V34.5063H31.0019C30.6413 34.5063 30.3494 34.7985 30.3494 35.1591V40.42C30.3494 40.7806 30.6417 41.0725 31.0019 41.0725H35.1741V54.3475C35.1741 54.708 35.4661 55 35.8266 55H41.2703C41.6308 55 41.9228 54.7077 41.9228 54.3475V41.0725H46.8011C47.1617 41.0725 47.4536 40.7806 47.4536 40.42L47.4556 35.1591C47.4556 34.986 47.3867 34.8202 47.2645 34.6977C47.1423 34.5752 46.9759 34.5063 46.8028 34.5063H41.9228V31.4282C41.9228 29.9488 42.2753 29.1977 44.2025 29.1977L46.9979 29.1967C47.3581 29.1967 47.65 28.9044 47.65 28.5442V23.6592C47.65 23.2993 47.3584 23.0073 46.9985 23.0067Z" fill="#1977F3"/>
</svg>
