<svg width="78" height="78" viewBox="0 0 78 78" fill="none" xmlns="http://www.w3.org/2000/svg">
<circle cx="39" cy="39" r="38.5" stroke="#EEEEEE"/>
<g clip-path="url(#clip0)">
<path d="M47.2344 39C47.2357 40.9378 46.5531 42.8138 45.3068 44.2977C44.0606 45.7815 42.3306 46.7779 40.4217 47.1114C38.5129 47.4448 36.5476 47.0939 34.872 46.1205C33.1965 45.147 31.9183 43.6135 31.2626 41.79L26.5527 45.5579C28.0172 48.3418 30.3723 50.5547 33.2418 51.8433C36.1114 53.1319 39.33 53.4219 42.3837 52.667C45.4373 51.912 48.15 50.1556 50.0885 47.6783C52.027 45.201 53.0796 42.1456 53.0782 39" fill="#00AC47"/>
<path d="M47.2344 39C47.2333 40.3101 46.9192 41.6009 46.3183 42.765C45.7173 43.9291 44.8469 44.9328 43.7795 45.6924L48.4358 49.4174C49.8959 48.1028 51.0636 46.4962 51.8633 44.7017C52.663 42.9072 53.0769 40.9647 53.0781 39" fill="#4285F4"/>
<path d="M30.7656 39C30.7677 38.0482 30.9358 37.104 31.2626 36.21L26.5527 32.4421C25.4818 34.4621 24.9219 36.7137 24.9219 39C24.9219 41.2863 25.4818 43.5378 26.5527 45.5579L31.2626 41.79C30.9358 40.896 30.7677 39.9518 30.7656 39Z" fill="#FFBA00"/>
<path d="M39 30.7656C40.7424 30.7661 42.4391 31.3229 43.8429 32.3549L48.1567 28.3288C46.5553 26.9481 44.6629 25.9469 42.6205 25.3999C40.5782 24.8529 38.4386 24.7742 36.3616 25.1697C34.2846 25.5651 32.3237 26.4246 30.6252 27.6838C28.9268 28.9431 27.5347 30.5696 26.5527 32.4422L31.2626 36.21C31.837 34.6177 32.8878 33.2409 34.2722 32.2668C35.6565 31.2927 37.3073 30.7686 39 30.7656Z" fill="#EA4435"/>
<path d="M53.0781 37.9375V39L50.6875 42.7188H39.5312V36.875H52.0156C52.2974 36.875 52.5677 36.9869 52.7669 37.1862C52.9662 37.3855 53.0781 37.6557 53.0781 37.9375Z" fill="#4285F4"/>
</g>
<defs>
<clipPath id="clip0">
<rect width="34" height="34" fill="white" transform="translate(22 22)"/>
</clipPath>
</defs>
</svg>
