<svg width="78" height="78" viewBox="0 0 78 78" fill="none" xmlns="http://www.w3.org/2000/svg">
<circle cx="39" cy="39" r="38.5" stroke="#EEEEEE"/>
<g clip-path="url(#clip0)">
<path d="M39 25.4167C29.6118 25.4167 22 31.378 22 38.7319C22 43.4862 25.1818 47.6583 29.9688 50.0128C27.5916 58.1572 26.1948 58.6871 35.9811 51.8361C36.9614 51.9735 37.9701 52.0457 39 52.0457C48.3882 52.0457 56 46.0844 56 38.7305C56 31.378 48.3882 25.4167 39 25.4167Z" fill="#3E2723"/>
<path d="M36.7107 35.7158C36.2616 34.4507 34.5446 34.4493 34.0969 35.7144C32.7029 40.0381 30.8358 42.7057 31.9833 43.2312C33.5104 43.924 33.543 42.3657 33.9085 41.6729H36.8991C37.2632 42.3628 37.2986 43.9226 38.8243 43.2312C39.9761 42.7057 38.1316 40.1217 36.7107 35.7158ZM34.4242 39.9474L35.4045 37.1835L36.3834 39.9474H34.4242Z" fill="#FFEB3B"/>
<path d="M29.6004 43.38C27.9032 43.38 28.9062 41.0326 28.62 36.6622C28.0123 36.5573 26.1267 37.0829 26.1267 35.7087C26.1267 35.1832 26.5588 34.7553 27.0886 34.7553C30.6558 35.0103 33.0726 34.0895 33.0726 35.7087C33.0726 37.107 31.2664 36.5446 30.5793 36.6622C30.296 41.0184 31.2947 43.38 29.6004 43.38Z" fill="#FFEB3B"/>
<path d="M40.6347 43.2369C38.9928 43.2369 39.9915 41.0198 39.6955 35.7271C39.6955 34.438 41.6972 34.4394 41.6972 35.7271V41.4505C42.645 41.5766 44.7218 40.983 44.7218 42.343C44.7204 43.7696 42.4891 43.0556 40.6347 43.2369Z" fill="#FFEB3B"/>
<path d="M49.7042 42.955L47.4035 39.9276L47.0635 40.2662V42.3912C47.0635 42.9295 46.6244 43.3658 46.0818 43.3658C44.3775 43.3658 45.3989 40.9122 45.1014 35.7272C45.1014 35.1903 45.5406 34.7525 46.0818 34.7525C47.5622 34.7525 46.9233 36.8463 47.0621 37.821C49.8388 35.1676 49.7722 34.8857 50.3431 34.8857C51.1308 34.8857 51.6139 35.8646 51.0897 36.3845L48.8542 38.6044L51.2682 41.782C52.0559 42.8091 50.4819 43.9863 49.7042 42.955Z" fill="#FFEB3B"/>
</g>
<defs>
<clipPath id="clip0">
<rect width="34" height="34" fill="white" transform="translate(22 24)"/>
</clipPath>
</defs>
</svg>
