<svg width="78" height="78" viewBox="0 0 78 78" fill="none" xmlns="http://www.w3.org/2000/svg">
<circle cx="39" cy="39" r="38.5" stroke="#EEEEEE"/>
<path d="M53.9925 53V52.9988H54V41.9963C54 36.6138 52.8413 32.4675 46.5488 32.4675C43.5238 32.4675 41.4938 34.1275 40.665 35.7013H40.5775V32.97H34.6113V52.9988H40.8238V43.0813C40.8238 40.47 41.3188 37.945 44.5525 37.945C47.7388 37.945 47.7863 40.925 47.7863 43.2488V53H53.9925Z" fill="#0077B5"/>
<path d="M24.495 32.9713H30.715V53H24.495V32.9713Z" fill="#0077B5"/>
<path d="M27.6025 23C25.6137 23 24 24.6138 24 26.6025C24 28.5913 25.6137 30.2388 27.6025 30.2388C29.5912 30.2388 31.205 28.5913 31.205 26.6025C31.2038 24.6138 29.59 23 27.6025 23V23Z" fill="#0077B5"/>
</svg>
