<svg width="78" height="78" viewBox="0 0 78 78" fill="none" xmlns="http://www.w3.org/2000/svg">
<circle cx="39" cy="39" r="38.5" stroke="#EEEEEE"/>
<g clip-path="url(#clip0)">
<circle cx="39" cy="39" r="38.5" stroke="#EEEEEE"/>
<path d="M55.381 29.078C54.1768 29.6 52.8937 29.946 51.556 30.114C52.9321 29.302 53.9825 28.026 54.4763 26.488C53.1932 27.244 51.7765 27.778 50.2668 28.076C49.0485 26.794 47.312 26 45.4177 26C41.7425 26 38.7837 28.948 38.7837 32.562C38.7837 33.082 38.8282 33.582 38.9375 34.058C33.4186 33.792 28.5351 31.178 25.2545 27.196C24.6818 28.178 24.3458 29.302 24.3458 30.512C24.3458 32.784 25.5298 34.798 27.2945 35.964C26.228 35.944 25.1817 35.638 24.2952 35.156C24.2952 35.176 24.2952 35.202 24.2952 35.228C24.2952 38.416 26.5963 41.064 29.6138 41.674C29.0735 41.82 28.4845 41.89 27.8733 41.89C27.4483 41.89 27.0193 41.866 26.6165 41.778C27.4767 44.376 29.9174 46.286 32.8195 46.348C30.561 48.094 27.6932 49.146 24.5887 49.146C24.0443 49.146 23.5221 49.122 23 49.056C25.9406 50.93 29.4256 52 33.1838 52C45.3995 52 52.0781 42 52.0781 33.332C52.0781 33.042 52.068 32.762 52.0538 32.484C53.3713 31.56 54.4783 30.406 55.381 29.078Z" fill="#03A9F4"/>
</g>
<defs>
<clipPath id="clip0">
<rect width="32.381" height="32" fill="white" transform="translate(23 23)"/>
</clipPath>
</defs>
</svg>
