<?xml version="1.0" encoding="utf-8"?>
<!-- Generator: Adobe Illustrator 25.0.1, SVG Export Plug-In . SVG Version: 6.00 Build 0)  -->
<svg version="1.1" id="Layer_1" xmlns="http://www.w3.org/2000/svg" xmlns:xlink="http://www.w3.org/1999/xlink" x="0px" y="0px"
	 viewBox="0 0 93 30" style="enable-background:new 0 0 93 30;" xml:space="preserve">
<style type="text/css">
	.st0{fill:#FFFFFF;}
	.st1{fill:#BDBDBD;}
	.st2{fill-rule:evenodd;clip-rule:evenodd;fill:none;stroke:#FFFFFF;stroke-width:2;stroke-miterlimit:10;}
	.st3{fill-rule:evenodd;clip-rule:evenodd;fill:#FFFFFF;}
	.st4{fill-rule:evenodd;clip-rule:evenodd;fill:#001435;}
	.st5{fill:#333333;}
	.st6{fill-rule:evenodd;clip-rule:evenodd;fill:#333333;}
	.st7{fill:#FFE600;}
	.st8{fill:#F2F2F2;stroke:#E0E0E0;}
	.st9{fill:none;stroke:#FFFFFF;stroke-width:2;stroke-linecap:round;stroke-linejoin:round;stroke-miterlimit:10;}
	.st10{fill-rule:evenodd;clip-rule:evenodd;}
	.st11{fill-rule:evenodd;clip-rule:evenodd;fill:#BDBDBD;}
	.st12{fill-rule:evenodd;clip-rule:evenodd;fill-opacity:0.54;}
	.st13{fill:none;stroke:#333333;stroke-width:1.5;stroke-miterlimit:10;}
	.st14{fill:#001435;}
	.st15{fill-rule:evenodd;clip-rule:evenodd;fill:none;stroke:#BDBDBD;stroke-miterlimit:10;}
	.st16{fill:url(#SVGID_1_);}
	.st17{fill:none;stroke:#BDBDBD;stroke-width:2;stroke-linecap:round;stroke-linejoin:round;stroke-miterlimit:10;}
	.st18{fill:#333333;stroke:#333333;stroke-width:0.4;stroke-miterlimit:10;}
	.st19{fill:#333333;stroke:#333333;stroke-width:0.5;stroke-linecap:round;stroke-linejoin:round;stroke-miterlimit:10;}
	.st20{fill-rule:evenodd;clip-rule:evenodd;fill:#FFFFFF;fill-opacity:0.54;}
	.st21{fill:#333333;stroke:#333333;stroke-width:0.5;stroke-miterlimit:10;}
	.st22{fill:#FFFFFF;stroke:#FFFFFF;stroke-width:0.5;stroke-miterlimit:10;}
</style>
<g>
	<path class="st0" d="M27.76,11.13c0.55,0.49,0.83,1.16,0.83,1.99c0,0.83-0.28,1.5-0.83,1.99c-0.55,0.49-1.28,0.74-2.19,0.74h-2.08
		v3.51H22.4v-8.98h3.17C26.47,10.39,27.2,10.64,27.76,11.13z M26.95,14.41c0.33-0.29,0.5-0.71,0.5-1.29c0-0.57-0.17-1-0.5-1.29
		c-0.33-0.29-0.85-0.43-1.54-0.43h-1.92v3.43h1.92C26.1,14.84,26.62,14.7,26.95,14.41z"/>
	<path class="st0" d="M40.1,16.02c0,1.15-0.3,2.02-0.9,2.61c-0.6,0.59-1.48,0.88-2.62,0.88c-1.14,0-2.02-0.29-2.62-0.88
		c-0.6-0.59-0.9-1.46-0.9-2.6v-5.63h1.09v5.36c0,0.94,0.2,1.63,0.59,2.07c0.39,0.44,1.01,0.66,1.84,0.66c0.83,0,1.45-0.22,1.84-0.66
		c0.39-0.44,0.59-1.13,0.59-2.07v-5.36h1.09V16.02z"/>
	<path class="st0" d="M45.39,10.39h3.2c1.03,0,1.8,0.22,2.31,0.65c0.5,0.43,0.76,1.04,0.76,1.83c0,0.47-0.13,0.89-0.4,1.25
		c-0.27,0.36-0.64,0.59-1.11,0.68v0.01c0.53,0.1,0.95,0.34,1.27,0.72c0.32,0.38,0.48,0.82,0.48,1.32c0,0.77-0.29,1.38-0.87,1.84
		c-0.58,0.45-1.39,0.68-2.44,0.68h-3.18V10.39z M48.6,14.34c0.64,0,1.12-0.12,1.44-0.36c0.31-0.24,0.47-0.61,0.47-1.11
		c0-0.97-0.63-1.46-1.9-1.46h-2.12v2.93H48.6z M48.83,18.35c0.63,0,1.11-0.13,1.43-0.39c0.32-0.26,0.48-0.63,0.48-1.11
		c0-0.48-0.16-0.85-0.48-1.11c-0.32-0.26-0.79-0.39-1.43-0.39h-2.35v2.99H48.83z"/>
	<path class="st0" d="M62.95,18.35v1.02h-6.23v-8.98h1.09v7.96H62.95z"/>
	<path class="st0" d="M68.39,19.37h-1.09v-8.98h1.09V19.37z"/>
	<path class="st0" d="M80.14,12.16l-0.94,0.76c-0.27-0.6-0.6-1.02-0.97-1.27c-0.38-0.25-0.89-0.37-1.54-0.37
		c-0.69,0-1.23,0.14-1.63,0.43c-0.39,0.29-0.59,0.65-0.59,1.1c0,0.29,0.08,0.53,0.23,0.72c0.15,0.19,0.41,0.36,0.77,0.5
		c0.36,0.14,0.85,0.27,1.49,0.37c1.19,0.2,2.03,0.5,2.52,0.9c0.49,0.4,0.74,0.95,0.74,1.66c0,0.51-0.14,0.95-0.43,1.34
		c-0.29,0.39-0.69,0.68-1.22,0.9c-0.53,0.21-1.13,0.32-1.82,0.32c-0.91,0-1.68-0.18-2.32-0.53c-0.64-0.35-1.13-0.83-1.46-1.41
		l0.94-0.76c0.24,0.54,0.61,0.95,1.08,1.24c0.48,0.29,1.07,0.44,1.79,0.44c0.71,0,1.27-0.13,1.69-0.39c0.42-0.26,0.63-0.62,0.63-1.1
		c0-0.4-0.18-0.72-0.54-0.95c-0.36-0.24-1.01-0.44-1.93-0.6c-1.2-0.21-2.05-0.51-2.54-0.9c-0.5-0.39-0.75-0.93-0.75-1.63
		c0-0.48,0.14-0.93,0.41-1.33c0.27-0.41,0.66-0.73,1.17-0.97c0.51-0.24,1.1-0.36,1.77-0.36C78.27,10.26,79.43,10.89,80.14,12.16z"/>
	<path class="st0" d="M92,10.39v8.98h-1.09v-4.04h-4.87v4.04h-1.09v-8.98h1.09v3.92h4.87v-3.92H92z"/>
</g>
<g>
	<g>
		<path class="st22" d="M5.37,10.67c-0.03,0-0.07-0.01-0.1-0.03L1.1,8.24C1.04,8.21,1,8.14,1,8.07S1.04,7.94,1.1,7.9l4.17-2.4
			c0.06-0.04,0.14-0.04,0.2,0L9.63,7.9c0.06,0.03,0.1,0.1,0.1,0.17s-0.04,0.13-0.1,0.17l-4.17,2.4C5.43,10.67,5.4,10.67,5.37,10.67z
			 M1.59,8.07l3.77,2.18l3.78-2.18L5.37,5.89L1.59,8.07z"/>
	</g>
	<g>
		<path class="st22" d="M5.36,20.3c-0.03,0-0.07-0.01-0.1-0.03c-0.06-0.04-0.1-0.1-0.1-0.17l0-4.81c0-0.07,0.04-0.13,0.1-0.17
			l4.17-2.41c0,0,0.01,0,0.01-0.01c0.06-0.03,0.13-0.03,0.19,0.01l4.17,2.41c0.06,0.03,0.1,0.1,0.1,0.17s-0.04,0.13-0.1,0.17
			l-8.33,4.81C5.43,20.3,5.4,20.3,5.36,20.3z M5.56,15.41l0,4.36l7.75-4.47l-3.77-2.18L5.56,15.41z"/>
	</g>
	<g>
		<path class="st22" d="M13.69,15.5c-0.03,0-0.07-0.01-0.1-0.03l-4.16-2.4c-0.03-0.02-0.06-0.05-0.08-0.08
			c-0.01-0.03-0.02-0.06-0.02-0.09l0-4.82c0-0.07,0.04-0.13,0.1-0.17c0.06-0.03,0.14-0.03,0.2,0l4.16,2.42
			c0.06,0.04,0.1,0.1,0.1,0.17l0,4.81c0,0.07-0.04,0.13-0.1,0.17C13.76,15.49,13.72,15.5,13.69,15.5z M9.72,12.78l3.77,2.18l0-4.36
			L9.72,8.41L9.72,12.78z"/>
	</g>
	<g>
		<path class="st22" d="M5.36,25.08c-0.03,0-0.07-0.01-0.1-0.03L1.1,22.67C1.04,22.64,1,22.58,1,22.5L1,8.07C1,8,1.04,7.94,1.1,7.9
			c0.06-0.03,0.14-0.03,0.2,0l4.17,2.41c0.06,0.03,0.1,0.1,0.1,0.17l0,14.41c0,0.07-0.04,0.13-0.1,0.17
			C5.43,25.07,5.4,25.08,5.36,25.08z M1.39,22.39l3.77,2.16l0-13.95L1.4,8.41L1.39,22.39z"/>
	</g>
</g>
</svg>
