<svg width="133" height="97" viewBox="0 0 133 97" fill="none" xmlns="http://www.w3.org/2000/svg">
<mask id="path-1-inside-1" fill="white">
<path fill-rule="evenodd" clip-rule="evenodd" d="M106.389 8L101 0L95.6114 8H10C4.47715 8 0 12.4771 0 18V87C0 92.5229 4.47715 97 10 97H123C128.523 97 133 92.5229 133 87V18C133 12.4772 128.523 8 123 8H106.389Z"/>
</mask>
<path fill-rule="evenodd" clip-rule="evenodd" d="M106.389 8L101 0L95.6114 8H10C4.47715 8 0 12.4771 0 18V87C0 92.5229 4.47715 97 10 97H123C128.523 97 133 92.5229 133 87V18C133 12.4772 128.523 8 123 8H106.389Z" fill="white"/>
<path d="M101 0L102.659 -1.11732C102.287 -1.66914 101.665 -2 101 -2C100.335 -2 99.7129 -1.66914 99.3412 -1.11732L101 0ZM106.389 8L104.73 9.11732C105.102 9.66914 105.723 10 106.389 10V8ZM95.6114 8V10C96.2767 10 96.8985 9.66914 97.2702 9.11732L95.6114 8ZM99.3412 1.11732L104.73 9.11732L108.047 6.88268L102.659 -1.11732L99.3412 1.11732ZM97.2702 9.11732L102.659 1.11732L99.3412 -1.11732L93.9526 6.88268L97.2702 9.11732ZM10 10H95.6114V6H10V10ZM2 18C2 13.5817 5.58172 10 10 10V6C3.37258 6 -2 11.3726 -2 18H2ZM2 87V18H-2V87H2ZM10 95C5.58172 95 2 91.4183 2 87H-2C-2 93.6274 3.37259 99 10 99V95ZM123 95H10V99H123V95ZM131 87C131 91.4183 127.418 95 123 95V99C129.627 99 135 93.6274 135 87H131ZM131 18V87H135V18H131ZM123 10C127.418 10 131 13.5817 131 18H135C135 11.3726 129.627 6 123 6V10ZM106.389 10H123V6H106.389V10Z" fill="#5D5FEF" mask="url(#path-1-inside-1)"/>
</svg>
