<svg width="139" height="24" viewBox="0 0 139 24" fill="none" xmlns="http://www.w3.org/2000/svg">
<path d="M110.579 18.3896C110.588 18.4454 110.584 18.5027 110.566 18.5566C110.549 18.6104 110.519 18.6594 110.479 18.6994C110.439 18.7394 110.39 18.7693 110.336 18.7867C110.282 18.804 110.225 18.8082 110.169 18.799C109.868 18.799 109.717 18.6697 109.717 18.3896V4.26974C109.707 4.21387 109.712 4.1566 109.729 4.10269C109.746 4.04877 109.776 3.99975 109.816 3.95968C109.856 3.91962 109.905 3.88966 109.959 3.87229C110.013 3.85492 110.07 3.85064 110.126 3.8598C110.428 3.8598 110.579 3.98909 110.579 4.26974V18.3896Z" fill="#000028"/>
<path d="M115.476 6.55525C115.343 6.55313 115.213 6.51177 115.103 6.43633C114.993 6.36089 114.907 6.25471 114.857 6.13105C114.807 6.00738 114.795 5.87171 114.821 5.74097C114.848 5.61023 114.912 5.4902 115.007 5.39588C115.101 5.30156 115.221 5.23712 115.352 5.2106C115.483 5.18408 115.618 5.19667 115.742 5.24678C115.865 5.29689 115.972 5.38231 116.047 5.49237C116.122 5.60244 116.164 5.73227 116.166 5.86567C116.171 5.95751 116.156 6.04934 116.123 6.13519C116.09 6.22105 116.039 6.29901 115.974 6.36403C115.909 6.42905 115.831 6.47967 115.746 6.51261C115.66 6.54555 115.568 6.56008 115.476 6.55525V6.55525ZM115.886 18.3904C115.895 18.4462 115.891 18.5035 115.873 18.5573C115.856 18.6112 115.826 18.6602 115.786 18.7002C115.746 18.7402 115.697 18.7701 115.643 18.7874C115.589 18.8048 115.532 18.809 115.476 18.7998C115.174 18.7998 115.023 18.6705 115.023 18.3904V9.65936C115.014 9.60352 115.019 9.5463 115.036 9.49244C115.053 9.43857 115.083 9.3896 115.123 9.34959C115.163 9.30958 115.212 9.27967 115.266 9.26234C115.32 9.245 115.377 9.24075 115.433 9.24992C115.735 9.24992 115.886 9.37922 115.886 9.65936V18.3904Z" fill="#000028"/>
<path d="M121.171 9.65909V10.7586C121.71 9.89663 122.831 9.16345 124.426 9.16345C125.633 9.16345 126.582 9.55134 127.142 10.3492C127.573 10.9526 127.789 11.7935 127.789 12.9361V18.3901C127.798 18.4459 127.794 18.5031 127.776 18.557C127.759 18.6109 127.729 18.6598 127.689 18.6999C127.649 18.7399 127.6 18.7698 127.546 18.7871C127.492 18.8044 127.435 18.8087 127.379 18.7995C127.077 18.7995 126.926 18.6702 126.926 18.3901V13.0438C126.926 12.2891 126.819 11.4702 126.387 10.8664C125.935 10.2414 125.224 9.93973 124.253 9.93973C122.744 9.93973 121.688 10.7371 121.192 11.5995V18.3901C121.201 18.4459 121.197 18.5032 121.18 18.5571C121.163 18.6109 121.133 18.6599 121.093 18.6999C121.052 18.74 121.003 18.7699 120.95 18.7872C120.896 18.8045 120.838 18.8087 120.783 18.7995C120.481 18.7995 120.33 18.6702 120.33 18.3901V9.65909C120.33 9.40049 120.459 9.24965 120.761 9.24965C121.063 9.24965 121.171 9.40049 121.171 9.65909Z" fill="#000028"/>
<path d="M139 18.562C139 18.7128 138.87 18.799 138.547 18.799C138.401 18.8001 138.258 18.7676 138.127 18.7041C137.996 18.6405 137.882 18.5476 137.792 18.4327L132.985 13.9058V18.3896C132.994 18.4454 132.99 18.5027 132.973 18.5565C132.955 18.6104 132.925 18.6594 132.885 18.6994C132.845 18.7394 132.796 18.7693 132.742 18.7867C132.689 18.804 132.631 18.8082 132.575 18.799C132.274 18.799 132.123 18.6697 132.123 18.3896V4.26974C132.114 4.21387 132.118 4.1566 132.135 4.10269C132.153 4.04877 132.182 3.99975 132.222 3.95968C132.262 3.91962 132.311 3.88966 132.365 3.87229C132.419 3.85492 132.476 3.85064 132.532 3.8598C132.834 3.8598 132.985 3.98909 132.985 4.26974V13.6252L137.512 9.63703C137.814 9.35689 137.986 9.24915 138.266 9.24915C138.59 9.24915 138.719 9.31379 138.719 9.48619C138.719 9.59394 138.59 9.72323 137.986 10.2409L133.955 13.7329L138.612 18.0663C138.892 18.3034 139 18.4758 139 18.562Z" fill="#000028"/>
<path d="M27.1898 14.3532C26.649 14.3605 26.1089 14.3101 25.5788 14.2028V18.0479C25.5788 18.542 25.2997 18.7998 24.6765 18.7998C24.0537 18.7998 23.7529 18.542 23.7529 18.0479V6.1047C23.7529 5.54644 23.7529 5.00945 24.6552 4.79451C25.4197 4.64797 26.1965 4.57598 26.9749 4.57956C30.283 4.57956 32.7104 6.08342 32.7104 9.41281C32.7104 12.7209 30.3259 14.3532 27.1898 14.3532ZM27.061 12.7851C29.4023 12.7851 30.7987 11.6253 30.7987 9.47737C30.7987 7.11448 29.1232 6.16925 26.9536 6.16925C26.4925 6.17343 26.0326 6.2165 25.5788 6.298V12.6347C26.0666 12.7348 26.5632 12.7852 27.061 12.7851V12.7851Z" fill="#000028"/>
<path d="M44.9564 15.3406C45.1868 14.693 45.2961 14.0085 45.2788 13.3214V5.37369C45.2788 4.87962 45.5579 4.62213 46.1378 4.62213C46.7177 4.62213 47.0185 4.87962 47.0185 5.37369V13.3001C47.0185 14.417 46.8681 15.3622 46.546 16.1354C45.7083 18.133 43.9253 18.9495 41.6699 18.9495C39.3928 18.9495 37.6531 18.1546 36.7937 16.1354C36.4717 15.3835 36.3213 14.4386 36.3213 13.3214V5.37369C36.3213 4.87962 36.6004 4.62213 37.2236 4.62213C37.8464 4.62213 38.1472 4.87962 38.1472 5.37369V13.3214C38.1472 14.3312 38.2759 14.8465 38.4692 15.3406C39.0062 16.7153 40.1235 17.3598 41.7128 17.3598C43.2808 17.3598 44.4194 16.7153 44.9564 15.3406Z" fill="#000028"/>
<path d="M60.7689 14.9114C60.7689 17.2313 58.8785 18.8423 54.9692 18.8423C54.1539 18.8523 53.3399 18.7731 52.5418 18.6061C51.6398 18.3912 51.6182 17.9187 51.6182 17.3172V6.10428C51.6182 5.43854 51.6398 5.07322 52.5418 4.81573C53.3395 4.64626 54.1537 4.5669 54.9692 4.57914C58.4919 4.57914 60.2532 5.97553 60.2532 8.16639C60.2532 9.75607 59.3296 10.9588 57.3963 11.367C59.6088 11.7536 60.7689 13.0642 60.7689 14.9114ZM53.3795 6.2763V10.7226H55.055C55.6379 10.7289 56.218 10.642 56.7735 10.4651C57.8262 10.0998 58.3202 9.34783 58.3202 8.38133C58.3202 7.0495 57.3104 6.14718 54.9046 6.14718C54.3935 6.14664 53.8833 6.18984 53.3795 6.2763V6.2763ZM58.8356 14.761C58.8356 13.6654 58.2557 12.8493 56.9884 12.441C56.3766 12.2502 55.7388 12.156 55.0979 12.1619H53.3795V17.1451C53.9118 17.2344 54.4508 17.2776 54.9905 17.2743C57.8045 17.2743 58.8356 16.2432 58.8356 14.761V14.761Z" fill="#000028"/>
<path d="M71.5749 17.059C72.069 17.059 72.3268 17.3169 72.3268 17.8755C72.3268 18.4125 72.069 18.6916 71.5749 18.6916H65.6464C64.9803 18.6916 64.7012 18.4125 64.7012 17.7464V5.37369C64.7012 4.87962 64.9803 4.62213 65.6035 4.62213C66.2263 4.62213 66.5271 4.87962 66.5271 5.37369V17.059H71.5749Z" fill="#000028"/>
<path d="M77.6345 18.0472C77.6345 18.5412 77.3554 18.7991 76.7322 18.7991C76.1094 18.7991 75.8086 18.5412 75.8086 18.0472V5.37369C75.8086 4.87962 76.0877 4.62213 76.7109 4.62213C77.3337 4.62213 77.6345 4.87962 77.6345 5.37369V18.0472Z" fill="#000028"/>
<path d="M81.7629 8.18742C81.7629 5.932 83.5672 4.47143 86.2521 4.47143C87.4266 4.46058 88.5804 4.78066 89.5815 5.39502C90.0756 5.71707 90.3121 5.97492 90.3121 6.27569C90.3121 6.68393 89.9468 7.19928 89.5173 7.19928C89.324 7.19928 89.1307 7.04889 88.7224 6.81267C87.9834 6.34317 87.1276 6.09017 86.2521 6.08239C84.5766 6.08239 83.5884 6.92015 83.5884 8.07995C83.5884 11.0444 90.5913 10.3354 90.5913 14.9324C90.5913 17.4669 88.5075 18.9492 85.8009 18.9492C84.5098 18.9707 83.2455 18.5792 82.1924 17.8319C81.7412 17.5099 81.4834 17.2091 81.4834 16.887C81.4834 16.4788 81.8704 15.9847 82.2782 15.9847C82.5361 15.9847 82.7078 16.1351 83.1589 16.4359C83.9265 17.0156 84.8607 17.332 85.8226 17.3382C87.5194 17.3382 88.7654 16.4359 88.7654 15.0395C88.7654 11.7747 81.7629 12.5479 81.7629 8.18742Z" fill="#000028"/>
<path d="M105.264 5.37369V18.0472C105.264 18.5412 104.985 18.7991 104.361 18.7991C103.739 18.7991 103.438 18.5412 103.438 18.0472V12.2691H96.3279V18.0472C96.3279 18.5412 96.0487 18.7991 95.4255 18.7991C94.8027 18.7991 94.502 18.5412 94.502 18.0472V5.37369C94.502 4.87962 94.7811 4.62213 95.4043 4.62213C96.0271 4.62213 96.3279 4.87962 96.3279 5.37369V10.6365H103.438V5.37369C103.438 4.87962 103.717 4.62213 104.34 4.62213C104.963 4.62214 105.264 4.87962 105.264 5.37369Z" fill="#000028"/>
<path d="M4.47659 1.19986C3.12941 1.97568 2.00863 3.09045 1.22559 4.43345C1.59887 3.81707 2.19878 3.37146 2.89672 3.19214C3.59465 3.01282 4.33506 3.11406 4.95924 3.47417C6.27777 4.23541 6.67011 6.06122 5.96829 7.24001L5.9693 7.24175C6.26859 6.71825 6.70025 6.28263 7.221 5.97858C7.74175 5.67453 8.33328 5.51272 8.93629 5.50939C9.5393 5.50606 10.1326 5.66132 10.6567 5.9596C11.1807 6.25788 11.6172 6.6887 11.9222 7.20887C11.927 7.21725 11.9305 7.22604 11.9353 7.23441C12.3014 7.86661 12.9034 8.32767 13.6091 8.51632C14.3149 8.70498 15.0666 8.6058 15.6993 8.24057C16.332 7.87535 16.7938 7.27394 16.9834 6.56844C17.173 5.86294 17.0748 5.11105 16.7104 4.4779L16.7103 4.47786L16.7103 4.47783L16.7102 4.47764L16.7098 4.47701C15.5221 2.4203 13.566 0.919623 11.2719 0.30505C8.97773 -0.309523 6.53342 0.0123481 4.47659 1.19986V1.19986Z" fill="#FFDC0D"/>
<path d="M5.96954 7.24146L5.96853 7.23975C5.99812 7.19002 6.02296 7.1377 6.04867 7.08579C6.06191 7.05921 6.07708 7.03314 6.08937 7.00629C6.61619 5.83197 6.19381 4.18655 4.95948 3.4739C4.49253 3.20336 3.95609 3.07676 3.41746 3.11L3.41015 3.11014C3.32783 3.11539 3.24596 3.12491 3.16466 3.13751C3.15967 3.1383 3.15461 3.13848 3.14962 3.13927C3.06932 3.15215 2.9898 3.16916 2.91101 3.189C2.9053 3.19044 2.89947 3.19128 2.89376 3.19276C2.81525 3.21307 2.73781 3.23742 2.66134 3.26455C2.6557 3.26655 2.64987 3.26799 2.64425 3.26999C2.56793 3.29764 2.49299 3.32924 2.41923 3.36353C2.41382 3.36609 2.40819 3.36804 2.40279 3.3706C2.32967 3.40522 2.25824 3.44369 2.18816 3.48472C2.18251 3.48807 2.17658 3.49082 2.17095 3.49416C2.10214 3.53514 2.03534 3.57989 1.97 3.62706C1.96361 3.63166 1.95687 3.63566 1.95051 3.64035C1.88701 3.68696 1.82584 3.73728 1.76613 3.78965C1.75864 3.79621 1.75071 3.80211 1.74329 3.80875C1.68612 3.86005 1.63156 3.91489 1.57837 3.97135C1.56943 3.98087 1.55987 3.98962 1.55104 3.99928C1.50092 4.05402 1.4537 4.11219 1.40761 4.17168C1.39718 4.18515 1.38599 4.1977 1.37577 4.21146C1.33332 4.26833 1.29397 4.32846 1.25545 4.38938C1.23564 4.42075 1.21389 4.45017 1.19518 4.48255C1.18389 4.50212 1.17544 4.52243 1.16467 4.54213C0.458576 5.78409 0.0616633 7.17771 0.00744031 8.60533L0 22.0491C-1.49968e-06 22.2295 0.035541 22.4082 0.104598 22.575C0.173655 22.7417 0.274875 22.8932 0.402477 23.0208C0.53008 23.1484 0.681566 23.2496 0.848288 23.3187C1.01501 23.3877 1.1937 23.4233 1.37416 23.4233H2.06885C2.98214 23.4233 3.85803 23.0605 4.50383 22.4147C5.14962 21.7689 5.51243 20.893 5.51245 19.9797V8.90305C5.52079 8.31835 5.6787 7.74553 5.97112 7.23913L5.97097 7.23918L5.96954 7.24146Z" fill="#007AFF"/>
<path d="M16.7367 4.52301C16.7584 4.56241 16.7756 4.60298 16.7951 4.64299C16.813 4.67938 16.8321 4.71544 16.8482 4.75225C16.8641 4.78873 16.8771 4.82576 16.8913 4.86266C16.9112 4.91396 16.9316 4.96508 16.9482 5.01702C16.9551 5.03853 16.96 5.06033 16.9663 5.08194C16.9862 5.14964 17.0049 5.21749 17.0194 5.28589C17.0203 5.29027 17.0208 5.29463 17.0217 5.29899C17.1541 5.93867 17.055 6.60458 16.7419 7.17793C16.4289 7.75128 15.9224 8.19478 15.3127 8.4293C14.703 8.66382 14.0298 8.67411 13.4133 8.45834C12.7967 8.24257 12.2768 7.81477 11.9464 7.25125C12.2451 7.76941 12.4019 8.35718 12.401 8.95527C12.4008 9.86379 12.0417 10.7354 11.4019 11.3804C10.7621 12.0254 9.89331 12.3915 8.98483 12.3989C8.9752 12.3988 8.96584 12.3974 8.95617 12.3974C8.22503 12.3974 7.52381 12.6878 7.00678 13.2048C6.48975 13.7217 6.19926 14.4229 6.19922 15.1541C6.19918 15.8852 6.48958 16.5864 7.00656 17.1035C7.52353 17.6205 8.22471 17.911 8.95586 17.911H8.95613L8.95692 17.911C10.5245 17.9111 12.0647 17.4996 13.4234 16.7178C14.7821 15.936 15.9118 14.8111 16.6994 13.4557C17.487 12.1004 17.905 10.562 17.9115 8.99436C17.9181 7.42677 17.513 5.88493 16.7367 4.52301V4.52301Z" fill="#FF8000"/>
</svg>
