<svg width="196" height="33" viewBox="0 0 196 33" fill="none" xmlns="http://www.w3.org/2000/svg">
<path d="M155.866 26.0118C155.879 26.0905 155.873 26.1712 155.848 26.2471C155.824 26.323 155.782 26.392 155.725 26.4484C155.669 26.5047 155.6 26.5469 155.524 26.5713C155.448 26.5957 155.367 26.6016 155.289 26.5887C154.864 26.5887 154.651 26.4065 154.651 26.0118V6.11925C154.638 6.04055 154.644 5.9599 154.669 5.88397C154.693 5.80804 154.735 5.739 154.792 5.68257C154.848 5.62614 154.917 5.58393 154.993 5.55944C155.069 5.53495 155.149 5.52887 155.228 5.54172C155.653 5.54172 155.866 5.72458 155.866 6.11925V26.0118Z" fill="#000028"/>
<path d="M155.289 26.6788C154.806 26.6788 154.561 26.4543 154.561 26.0118V6.11915C154.549 6.02857 154.557 5.93629 154.586 5.84956C154.615 5.76283 154.664 5.68402 154.729 5.61931C154.793 5.5546 154.872 5.50576 154.959 5.47662C155.045 5.44748 155.138 5.43885 155.228 5.45139C155.711 5.45139 155.957 5.67607 155.957 6.11915V26.0118C155.969 26.1024 155.96 26.1946 155.931 26.2813C155.902 26.368 155.853 26.4467 155.789 26.5113C155.724 26.576 155.645 26.6247 155.559 26.6538C155.472 26.6828 155.38 26.6914 155.289 26.6788V26.6788ZM155.228 5.63207C154.883 5.63207 154.742 5.77322 154.742 6.11915V26.0118C154.742 26.3527 154.906 26.4981 155.289 26.4981C155.635 26.4981 155.776 26.3572 155.776 26.0118V6.11915C155.776 5.77767 155.612 5.63207 155.228 5.63207V5.63207Z" fill="#000028"/>
<path d="M162.758 9.33779C162.57 9.33481 162.387 9.27654 162.232 9.17026C162.077 9.06397 161.957 8.91439 161.886 8.74016C161.816 8.56594 161.798 8.3748 161.836 8.19061C161.873 8.00641 161.964 7.83732 162.097 7.70443C162.23 7.57155 162.399 7.48076 162.583 7.44341C162.767 7.40605 162.958 7.42377 163.133 7.49437C163.307 7.56497 163.456 7.68531 163.563 7.84037C163.669 7.99543 163.727 8.17835 163.73 8.36629C163.737 8.49568 163.716 8.62504 163.67 8.746C163.623 8.86695 163.552 8.97679 163.46 9.06839C163.369 9.15999 163.259 9.23131 163.138 9.27772C163.017 9.32413 162.887 9.3446 162.758 9.33779ZM163.335 26.0115C163.348 26.0902 163.342 26.1709 163.318 26.2468C163.293 26.3227 163.251 26.3917 163.195 26.4481C163.138 26.5044 163.069 26.5466 162.993 26.571C162.917 26.5954 162.837 26.6013 162.758 26.5884C162.333 26.5884 162.12 26.4062 162.12 26.0115V13.7117C162.107 13.633 162.113 13.5523 162.138 13.4763C162.162 13.4004 162.204 13.3313 162.261 13.2749C162.317 13.2184 162.386 13.1762 162.462 13.1518C162.538 13.1273 162.619 13.1212 162.697 13.1342C163.123 13.1342 163.335 13.3163 163.335 13.7117V26.0115Z" fill="#000028"/>
<path d="M162.758 26.6786C162.276 26.6786 162.031 26.4542 162.031 26.0117V13.7117C162.018 13.6211 162.027 13.5288 162.056 13.4421C162.085 13.3553 162.133 13.2765 162.198 13.2118C162.263 13.1471 162.341 13.0983 162.428 13.0691C162.515 13.04 162.607 13.0314 162.698 13.0439C163.181 13.0439 163.426 13.2686 163.426 13.7117V26.0117C163.439 26.1022 163.43 26.1945 163.401 26.2812C163.372 26.3678 163.323 26.4466 163.258 26.5112C163.193 26.5759 163.115 26.6246 163.028 26.6537C162.941 26.6827 162.849 26.6913 162.758 26.6786ZM162.698 13.2246C162.352 13.2246 162.211 13.3657 162.211 13.7117V26.0117C162.211 26.3526 162.375 26.4979 162.758 26.4979C163.104 26.4979 163.245 26.3571 163.245 26.0117V13.7117C163.245 13.3702 163.082 13.2246 162.698 13.2246ZM162.758 9.42826C162.553 9.42525 162.352 9.36166 162.182 9.24542C162.013 9.12919 161.881 8.96547 161.803 8.77472C161.726 8.58398 161.707 8.37466 161.747 8.17294C161.788 7.97122 161.888 7.78603 162.033 7.64052C162.179 7.49501 162.364 7.39563 162.566 7.3548C162.768 7.31396 162.977 7.33349 163.168 7.41094C163.358 7.48838 163.522 7.62031 163.638 7.79024C163.754 7.96017 163.818 8.16056 163.821 8.36637C163.827 8.5076 163.804 8.64864 163.753 8.78047C163.702 8.9123 163.624 9.03201 163.524 9.13196C163.424 9.23191 163.304 9.30989 163.173 9.36091C163.041 9.41193 162.9 9.43487 162.758 9.42827V9.42826ZM162.758 7.51479C162.587 7.51781 162.421 7.57157 162.28 7.66927C162.139 7.76696 162.03 7.90421 161.968 8.06365C161.905 8.22309 161.891 8.39757 161.927 8.56503C161.963 8.73249 162.049 8.88541 162.172 9.00446C162.295 9.12351 162.451 9.20334 162.619 9.23386C162.788 9.26437 162.962 9.24421 163.119 9.17592C163.276 9.10762 163.41 8.99426 163.502 8.85017C163.595 8.70608 163.643 8.53772 163.64 8.36638C163.643 8.25107 163.623 8.13632 163.579 8.02948C163.536 7.92265 163.47 7.82607 163.387 7.74592C163.304 7.66578 163.206 7.60383 163.097 7.56403C162.989 7.52423 162.874 7.50746 162.758 7.51479V7.51479Z" fill="#000028"/>
<path d="M170.775 13.7117V15.26C171.535 14.0456 173.114 13.0127 175.361 13.0127C177.062 13.0127 178.398 13.5599 179.188 14.6832C179.795 15.5339 180.099 16.718 180.099 18.3277V26.0115C180.112 26.0902 180.106 26.1708 180.081 26.2467C180.057 26.3226 180.015 26.3916 179.958 26.4479C179.902 26.5043 179.833 26.5465 179.757 26.5709C179.681 26.5953 179.601 26.6013 179.522 26.5884C179.097 26.5884 178.884 26.4062 178.884 26.0115V18.4795C178.884 17.4169 178.732 16.2626 178.125 15.4125C177.487 14.5314 176.485 14.1063 175.118 14.1063C172.992 14.1063 171.504 15.2296 170.806 16.4447V26.0115C170.818 26.0902 170.812 26.1709 170.788 26.2468C170.764 26.3227 170.721 26.3917 170.665 26.448C170.609 26.5044 170.54 26.5466 170.464 26.5709C170.388 26.5953 170.307 26.6013 170.228 26.5883C169.803 26.5883 169.591 26.4062 169.591 26.0115V13.7117C169.591 13.3474 169.773 13.1341 170.198 13.1341C170.277 13.1212 170.357 13.1272 170.433 13.1516C170.509 13.176 170.578 13.2182 170.635 13.2747C170.691 13.3311 170.733 13.4002 170.758 13.4762C170.782 13.5522 170.788 13.6329 170.775 13.7117V13.7117Z" fill="#000028"/>
<path d="M179.522 26.6786C179.038 26.6786 178.794 26.4542 178.794 26.0116V18.4795C178.794 17.1502 178.551 16.164 178.051 15.4651C177.433 14.6117 176.474 14.1966 175.118 14.1966C173.301 14.1966 171.725 15.0456 170.896 16.4691V26.0116C170.908 26.1022 170.9 26.1944 170.87 26.2811C170.841 26.3678 170.793 26.4466 170.728 26.5112C170.663 26.5758 170.584 26.6246 170.498 26.6536C170.411 26.6827 170.319 26.6912 170.228 26.6786C169.745 26.6786 169.5 26.4542 169.5 26.0116V13.7116C169.491 13.619 169.502 13.5253 169.534 13.4378C169.566 13.3503 169.618 13.2712 169.685 13.2068C169.753 13.1423 169.834 13.0941 169.923 13.0659C170.011 13.0377 170.106 13.0301 170.198 13.0439C170.288 13.0313 170.381 13.0399 170.467 13.069C170.554 13.0981 170.633 13.147 170.698 13.2117C170.762 13.2764 170.811 13.3552 170.84 13.442C170.869 13.5287 170.878 13.621 170.865 13.7116V14.9649C171.801 13.6805 173.457 12.9224 175.361 12.9224C177.127 12.9224 178.476 13.5131 179.261 14.6313C179.885 15.5049 180.189 16.7145 180.189 18.3279V26.0116C180.201 26.1022 180.193 26.1944 180.164 26.2811C180.135 26.3678 180.086 26.4465 180.021 26.5112C179.957 26.5758 179.878 26.6246 179.791 26.6536C179.704 26.6827 179.612 26.6912 179.522 26.6786V26.6786ZM175.118 14.0159C176.516 14.0159 177.553 14.4679 178.198 15.3596C178.72 16.0907 178.974 17.1112 178.974 18.4795V26.0116C178.974 26.3526 179.138 26.4979 179.522 26.4979C179.867 26.4979 180.008 26.357 180.008 26.0116V18.3279C180.008 16.7532 179.716 15.5782 179.114 14.7358C178.363 13.6674 177.066 13.1031 175.361 13.1031C173.401 13.1031 171.715 13.9274 170.852 15.308L170.685 15.5751V13.7116C170.685 13.3657 170.543 13.2246 170.198 13.2246C169.845 13.2246 169.681 13.3793 169.681 13.7116V26.0116C169.681 26.3526 169.845 26.4979 170.228 26.4979C170.574 26.4979 170.715 26.357 170.715 26.0116V16.4207L170.727 16.3997C171.585 14.9071 173.227 14.0159 175.118 14.0159Z" fill="#000028"/>
<path d="M195.888 26.2547C195.888 26.4672 195.706 26.5887 195.25 26.5887C195.045 26.5902 194.843 26.5444 194.659 26.4549C194.474 26.3654 194.313 26.2345 194.187 26.0725L187.415 19.6949V26.0118C187.428 26.0905 187.422 26.1712 187.397 26.2471C187.373 26.323 187.331 26.392 187.274 26.4484C187.218 26.5047 187.149 26.5469 187.073 26.5713C186.997 26.5956 186.916 26.6016 186.838 26.5887C186.413 26.5887 186.2 26.4065 186.2 26.0118V6.11925C186.187 6.04055 186.193 5.9599 186.217 5.88397C186.242 5.80804 186.284 5.739 186.34 5.68257C186.397 5.62614 186.466 5.58393 186.542 5.55944C186.617 5.53495 186.698 5.52887 186.777 5.54171C187.202 5.54171 187.415 5.72458 187.415 6.11925V19.3002L193.792 13.6816C194.218 13.2862 194.461 13.1344 194.855 13.1344C195.311 13.1344 195.493 13.2255 195.493 13.4691C195.493 13.6209 195.311 13.803 194.461 14.5317L188.781 19.452L195.341 25.5564C195.736 25.8904 195.888 26.1333 195.888 26.2547Z" fill="#000028"/>
<path d="M195.251 26.6788C195.034 26.6806 194.819 26.6324 194.623 26.5379C194.427 26.4433 194.255 26.305 194.122 26.1336L187.506 19.904V26.0118C187.518 26.1024 187.51 26.1946 187.48 26.2813C187.451 26.368 187.403 26.4467 187.338 26.5114C187.273 26.576 187.194 26.6248 187.108 26.6538C187.021 26.6828 186.929 26.6914 186.838 26.6788C186.355 26.6788 186.11 26.4544 186.11 26.0118V6.11918C186.098 6.02857 186.106 5.93627 186.135 5.84953C186.164 5.76279 186.213 5.68396 186.278 5.61925C186.342 5.55454 186.421 5.5057 186.508 5.47658C186.595 5.44746 186.687 5.43884 186.777 5.45141C187.261 5.45141 187.506 5.67609 187.506 6.11918V19.1L193.733 13.6136C194.156 13.2203 194.42 13.044 194.856 13.044C195.216 13.044 195.584 13.0946 195.584 13.4691C195.584 13.6579 195.435 13.8163 194.52 14.6001L188.917 19.4543L195.404 25.4902C195.774 25.8031 195.979 26.0757 195.979 26.2546C195.979 26.5361 195.734 26.6788 195.251 26.6788ZM187.333 19.4931L194.25 26.0068C194.367 26.1608 194.519 26.2853 194.693 26.3706C194.866 26.4558 195.057 26.4995 195.251 26.4981C195.799 26.4981 195.799 26.3211 195.799 26.2545C195.799 26.1825 195.69 25.9691 195.284 25.6253L188.647 19.4496L194.402 14.4631C195.154 13.8194 195.403 13.5858 195.403 13.469C195.403 13.3402 195.361 13.2247 194.856 13.2247C194.511 13.2247 194.296 13.3371 193.854 13.7477L187.333 19.4931ZM186.777 5.63209C186.432 5.63209 186.291 5.77324 186.291 6.11917V26.0118C186.291 26.3528 186.455 26.4981 186.838 26.4981C187.184 26.4981 187.325 26.3572 187.325 26.0118V6.11918C187.325 5.78241 187.156 5.6321 186.777 5.6321V5.63209Z" fill="#000028"/>
<path d="M38.3068 20.2208C37.5449 20.2311 36.7841 20.1601 36.0372 20.0089V25.426C36.0372 26.1221 35.644 26.4854 34.766 26.4854C33.8886 26.4854 33.4648 26.1221 33.4648 25.426V8.60001C33.4648 7.81352 33.4648 7.05699 34.7361 6.75417C35.813 6.54772 36.9075 6.4463 38.004 6.45135C42.6646 6.45135 46.0845 8.57004 46.0845 13.2606C46.0845 17.9212 42.7251 20.2208 38.3068 20.2208ZM38.1254 18.0117C41.4239 18.0117 43.3912 16.3777 43.3912 13.3516C43.3912 10.0226 41.0306 8.69096 37.974 8.69096C37.3245 8.69685 36.6766 8.75753 36.0372 8.87234V17.7998C36.7244 17.9407 37.424 18.0117 38.1254 18.0117V18.0117Z" fill="#000028"/>
<path d="M63.3373 21.6133C63.6619 20.7009 63.8159 19.7366 63.7915 18.7685V7.57152C63.7915 6.87546 64.1848 6.5127 65.0018 6.5127C65.8187 6.5127 66.2425 6.87546 66.2425 7.57152V18.7386C66.2425 20.3121 66.0306 21.6438 65.5769 22.7331C64.3966 25.5473 61.8847 26.6976 58.7072 26.6976C55.4992 26.6976 53.0482 25.5778 51.8375 22.7331C51.3837 21.6737 51.1719 20.3426 51.1719 18.7685V7.57152C51.1719 6.87546 51.5651 6.5127 52.4431 6.5127C53.3205 6.5127 53.7443 6.87546 53.7443 7.57152V18.7685C53.7443 20.1912 53.9257 20.9172 54.198 21.6133C54.9545 23.5501 56.5285 24.458 58.7676 24.458C60.9768 24.458 62.5808 23.5501 63.3373 21.6133Z" fill="#000028"/>
<path d="M85.6127 21.0079C85.6127 24.2764 82.9493 26.5459 77.4418 26.5459C76.2931 26.5601 75.1463 26.4485 74.0219 26.2132C72.7512 25.9103 72.7207 25.2448 72.7207 24.3973V8.60011C72.7207 7.6622 72.7512 7.14752 74.0219 6.78475C75.1458 6.546 76.2929 6.43419 77.4418 6.45144C82.4047 6.45144 84.8861 8.41871 84.8861 11.5053C84.8861 13.7449 83.5849 15.4393 80.8611 16.0145C83.9782 16.5591 85.6127 18.4055 85.6127 21.0079ZM75.2022 8.84246V15.1065H77.5627C78.3839 15.1155 79.2012 14.993 79.9837 14.7438C81.4668 14.2291 82.1628 13.1698 82.1628 11.8081C82.1628 9.93177 80.7402 8.66056 77.3508 8.66056C76.6307 8.65979 75.9119 8.72065 75.2022 8.84246V8.84246ZM82.8889 20.796C82.8889 19.2525 82.0719 18.1027 80.2865 17.5275C79.4246 17.2587 78.526 17.126 77.6232 17.1343H75.2022V24.1549C75.9521 24.2807 76.7114 24.3415 77.4717 24.3368C81.4363 24.3368 82.8889 22.8842 82.8889 20.796V20.796Z" fill="#000028"/>
<path d="M100.837 24.0343C101.533 24.0343 101.897 24.3976 101.897 25.1846C101.897 25.9411 101.533 26.3343 100.837 26.3343H92.485C91.5466 26.3343 91.1533 25.9411 91.1533 25.0027V7.57152C91.1533 6.87546 91.5466 6.5127 92.4245 6.5127C93.302 6.5127 93.7257 6.87546 93.7257 7.57152V24.0343H100.837Z" fill="#000028"/>
<path d="M109.374 25.4264C109.374 26.1225 108.981 26.4857 108.103 26.4857C107.225 26.4857 106.802 26.1225 106.802 25.4264V7.57152C106.802 6.87546 107.195 6.5127 108.073 6.5127C108.95 6.5127 109.374 6.87546 109.374 7.57152V25.4264Z" fill="#000028"/>
<path d="M115.189 11.5359C115.189 8.35838 117.731 6.30067 121.513 6.30067C123.168 6.28539 124.793 6.73632 126.204 7.60185C126.9 8.05557 127.233 8.41884 127.233 8.84258C127.233 9.41773 126.718 10.1438 126.113 10.1438C125.841 10.1438 125.569 9.9319 124.994 9.59911C123.952 8.93765 122.747 8.58122 121.513 8.57025C119.153 8.57025 117.761 9.75052 117.761 11.3845C117.761 15.5609 127.626 14.562 127.626 21.0385C127.626 24.6093 124.691 26.6975 120.878 26.6975C119.059 26.7278 117.277 26.1763 115.794 25.1234C115.158 24.6697 114.795 24.246 114.795 23.7923C114.795 23.2171 115.34 22.5211 115.915 22.5211C116.278 22.5211 116.52 22.7329 117.155 23.1567C118.237 23.9733 119.553 24.4192 120.908 24.4279C123.299 24.4279 125.054 23.1567 125.054 21.1894C125.054 16.5898 115.189 17.6791 115.189 11.5359Z" fill="#000028"/>
<path d="M148.298 7.57152V25.4264C148.298 26.1225 147.905 26.4857 147.027 26.4857C146.15 26.4857 145.726 26.1225 145.726 25.4264V17.286H135.709V25.4264C135.709 26.1225 135.316 26.4857 134.438 26.4857C133.56 26.4857 133.137 26.1225 133.137 25.4264V7.57152C133.137 6.87546 133.53 6.5127 134.408 6.5127C135.285 6.5127 135.709 6.87546 135.709 7.57152V14.9859H145.726V7.57152C145.726 6.87546 146.119 6.5127 146.997 6.5127C147.875 6.5127 148.298 6.87546 148.298 7.57152Z" fill="#000028"/>
<path d="M8.41087 10.1995C8.92562 9.3075 9.06498 8.24752 8.7983 7.25273C8.53163 6.25795 7.88075 5.40981 6.98882 4.89486C6.09689 4.3799 5.03694 4.2403 4.04209 4.50675C3.04724 4.7732 2.19896 5.42388 1.6838 6.31569C1.6679 6.34322 1.656 6.37185 1.64083 6.39959C0.646059 8.14933 0.0868723 10.1127 0.0104795 12.124L0 31.0641C0 31.5776 0.203967 32.07 0.56703 32.433C0.930094 32.7961 1.42251 33.0001 1.93596 33.0001H2.91468C3.55178 33.0001 4.18265 32.8746 4.77126 32.6308C5.35986 32.387 5.89469 32.0296 6.34519 31.5791C6.79569 31.1286 7.15304 30.5938 7.39685 30.0052C7.64066 29.4166 7.76615 28.7857 7.76615 28.1486V12.5435C7.7779 11.7197 8.00037 10.9127 8.41235 10.1992L8.41087 10.1995Z" fill="#007AFF"/>
<path d="M25.2342 12.6164C25.2367 10.4262 24.666 8.27349 23.579 6.37207C24.0716 7.26831 24.1906 8.32271 23.9103 9.30621C23.6299 10.2897 22.9728 11.1228 22.0817 11.6246C21.1906 12.1264 20.1375 12.2563 19.1511 11.9862C18.1648 11.716 17.3249 11.0675 16.8139 10.1816H16.8111C17.2449 10.9195 17.4727 11.7604 17.4706 12.6164C17.4704 13.8963 16.9646 15.1244 16.0631 16.0331C15.1617 16.9417 13.9378 17.4575 12.6579 17.4679C12.6443 17.4678 12.6311 17.4659 12.6175 17.4659C11.5874 17.4658 10.5995 17.8749 9.87111 18.6033C9.1427 19.3316 8.73346 20.3194 8.7334 21.3495C8.73334 22.3796 9.14248 23.3675 9.8708 24.0959C10.5991 24.8243 11.587 25.2335 12.617 25.2336H12.6172L12.6174 25.2336L12.6185 25.2336C15.9646 25.2332 19.1734 23.9037 21.5393 21.5376C23.9051 19.1714 25.2342 15.9624 25.2342 12.6164V12.6164Z" fill="#FF8000"/>
<path d="M6.30768 1.69042C4.40971 2.78343 2.83072 4.35396 1.72754 6.24602C2.25344 5.37764 3.09861 4.74984 4.08189 4.49721C5.06517 4.24458 6.10829 4.38722 6.98765 4.89455C8.84525 5.96702 9.398 8.5393 8.40924 10.2L8.41066 10.2025C8.83231 9.46493 9.44045 8.85122 10.1741 8.42285C10.9078 7.99448 11.7411 7.76652 12.5907 7.76183C13.4402 7.75714 14.2761 7.97587 15.0144 8.39611C15.7528 8.81634 16.3676 9.4233 16.7974 10.1561C16.8041 10.1679 16.809 10.1803 16.8158 10.1921C17.3317 11.0824 18.1798 11.7316 19.1739 11.9972C20.168 12.2628 21.2269 12.123 22.1181 11.6085C23.0092 11.0941 23.6598 10.2471 23.927 9.25339C24.1941 8.25971 24.0561 7.20062 23.5431 6.30864V6.30864L23.5431 6.30858L23.543 6.30853L23.5429 6.30826L23.5423 6.30738C21.869 3.40981 19.1132 1.2956 15.8811 0.429764C12.6491 -0.436068 9.20542 0.0173988 6.30768 1.69042V1.69042Z" fill="#FFDC0D"/>
</svg>
