<svg width="411" height="62" viewBox="0 0 411 62" fill="none" xmlns="http://www.w3.org/2000/svg">
<path d="M289.83 48.8161C289.854 48.9624 289.843 49.1124 289.797 49.2535C289.752 49.3946 289.674 49.5229 289.569 49.6277C289.464 49.7325 289.335 49.8109 289.194 49.8562C289.053 49.9016 288.903 49.9127 288.757 49.8886C287.967 49.8886 287.572 49.5499 287.572 48.8161V11.8319C287.547 11.6855 287.558 11.5355 287.604 11.3943C287.649 11.2531 287.727 11.1247 287.832 11.0198C287.937 10.9148 288.065 10.8363 288.206 10.7908C288.348 10.7453 288.498 10.7341 288.644 10.7581C289.435 10.7581 289.83 11.0968 289.83 11.8319V48.8161Z" fill="#EEEEEE"/>
<path d="M302.655 17.8166C302.306 17.8111 301.965 17.7027 301.677 17.5051C301.389 17.3075 301.165 17.0294 301.034 16.7055C300.903 16.3816 300.87 16.0262 300.94 15.6837C301.009 15.3413 301.178 15.0269 301.426 14.7798C301.673 14.5328 301.987 14.364 302.33 14.2945C302.672 14.2251 303.027 14.258 303.351 14.3893C303.675 14.5206 303.953 14.7443 304.151 15.0326C304.348 15.3209 304.456 15.661 304.462 16.0104C304.474 16.2509 304.436 16.4915 304.35 16.7163C304.264 16.9412 304.131 17.1454 303.961 17.3157C303.79 17.486 303.586 17.6186 303.361 17.7049C303.136 17.7912 302.896 17.8292 302.655 17.8166ZM303.728 48.8164C303.752 48.9628 303.741 49.1127 303.695 49.2538C303.65 49.395 303.572 49.5232 303.467 49.628C303.362 49.7329 303.234 49.8112 303.092 49.8565C302.951 49.9019 302.801 49.913 302.655 49.8889C301.865 49.8889 301.47 49.5502 301.47 48.8164V25.9472C301.446 25.801 301.457 25.6511 301.502 25.51C301.548 25.3689 301.626 25.2406 301.731 25.1358C301.835 25.031 301.964 24.9527 302.105 24.9073C302.246 24.8619 302.396 24.8508 302.542 24.8748C303.333 24.8748 303.728 25.2135 303.728 25.9472V48.8164Z" fill="#EEEEEE"/>
<path d="M317.571 25.946V28.826C318.983 26.5682 321.919 24.6478 326.098 24.6478C329.259 24.6478 331.744 25.6638 333.212 27.7535C334.341 29.334 334.906 31.5366 334.906 34.5295V48.8152C334.93 48.9615 334.918 49.1113 334.873 49.2524C334.828 49.3935 334.749 49.5218 334.644 49.6266C334.54 49.7314 334.411 49.8097 334.27 49.8551C334.129 49.9005 333.979 49.9117 333.833 49.8876C333.042 49.8876 332.647 49.549 332.647 48.8152V34.8117C332.647 32.8348 332.365 30.6899 331.235 29.1082C330.05 27.4713 328.187 26.6811 325.645 26.6811C321.693 26.6811 318.926 28.7695 317.628 31.0286V48.8152C317.652 48.9615 317.64 49.1114 317.595 49.2526C317.55 49.3937 317.471 49.522 317.366 49.6268C317.261 49.7316 317.133 49.8099 316.992 49.8553C316.851 49.9006 316.701 49.9117 316.554 49.8876C315.764 49.8876 315.369 49.549 315.369 48.8152V25.946C315.369 25.2686 315.708 24.8735 316.498 24.8735C317.289 24.8735 317.571 25.2686 317.571 25.946Z" fill="#EEEEEE"/>
<path d="M364.273 49.2677C364.273 49.6628 363.934 49.8886 363.087 49.8886C362.706 49.8914 362.33 49.8063 361.987 49.6399C361.644 49.4735 361.345 49.2302 361.111 48.929L348.519 37.0717V48.8161C348.543 48.9624 348.532 49.1124 348.487 49.2535C348.441 49.3946 348.363 49.5229 348.258 49.6277C348.153 49.7325 348.025 49.8109 347.884 49.8562C347.743 49.9016 347.593 49.9127 347.446 49.8886C346.656 49.8886 346.261 49.5499 346.261 48.8161V11.8319C346.237 11.6855 346.248 11.5355 346.293 11.3943C346.339 11.2531 346.417 11.1247 346.522 11.0198C346.626 10.9148 346.755 10.8363 346.896 10.7908C347.037 10.7453 347.187 10.7341 347.333 10.7581C348.124 10.7581 348.519 11.0968 348.519 11.8319V36.3367L360.377 25.8905C361.168 25.1567 361.619 24.8745 362.353 24.8745C363.2 24.8745 363.539 25.0438 363.539 25.4954C363.539 25.7776 363.2 26.1163 361.619 27.4723L351.06 36.6189L363.257 47.9695C363.99 48.5904 364.273 49.0419 364.273 49.2677Z" fill="#EEEEEE"/>
<path d="M71.408 38.2406C69.9914 38.2598 68.5769 38.1278 67.1884 37.8467V47.9182C67.1884 49.2124 66.4572 49.8878 64.8249 49.8878C63.1936 49.8878 62.4058 49.2124 62.4058 47.9182V16.6353C62.4058 15.173 62.4058 13.7665 64.7692 13.2035C66.7715 12.8197 68.8063 12.6311 70.845 12.6405C79.51 12.6405 85.8682 16.5796 85.8682 25.3003C85.8682 33.9653 79.6224 38.2406 71.408 38.2406ZM71.0708 34.1334C77.2032 34.1334 80.8608 31.0955 80.8608 25.4694C80.8608 19.2802 76.4721 16.8044 70.7893 16.8044C69.5816 16.8153 68.377 16.9281 67.1884 17.1416V33.7395C68.4659 34.0015 69.7666 34.1335 71.0708 34.1334Z" fill="#EEEEEE"/>
<path d="M117.946 40.8296C118.549 39.1334 118.835 37.3406 118.79 35.5407V14.7232C118.79 13.4291 119.521 12.7546 121.04 12.7546C122.559 12.7546 123.347 13.4291 123.347 14.7232V35.485C123.347 38.4105 122.953 40.8863 122.109 42.9116C119.915 48.1438 115.245 50.2824 109.337 50.2824C103.373 50.2824 98.8161 48.2005 96.5651 42.9116C95.7215 40.942 95.3276 38.4672 95.3276 35.5407V14.7232C95.3276 13.4291 96.0588 12.7546 97.6911 12.7546C99.3224 12.7546 100.11 13.4291 100.11 14.7232V35.5407C100.11 38.1857 100.447 39.5355 100.954 40.8296C102.36 44.4305 105.287 46.1186 109.45 46.1186C113.557 46.1186 116.539 44.4305 117.946 40.8296Z" fill="#EEEEEE"/>
<path d="M159.361 39.7042C159.361 45.7809 154.41 50.0006 144.17 50.0006C142.034 50.0269 139.902 49.8194 137.812 49.3819C135.449 48.8189 135.393 47.5814 135.393 46.0058V16.6357C135.393 14.8919 135.449 13.935 137.812 13.2606C139.901 12.8167 142.034 12.6088 144.17 12.6409C153.397 12.6409 158.011 16.2984 158.011 22.037C158.011 26.2009 155.591 29.3512 150.527 30.4205C156.322 31.4331 159.361 34.8659 159.361 39.7042ZM140.006 17.0863V28.7325H144.395C145.922 28.749 147.441 28.5213 148.896 28.058C151.653 27.1011 152.947 25.1316 152.947 22.6C152.947 19.1115 150.302 16.7481 144.001 16.7481C142.662 16.7466 141.326 16.8598 140.006 17.0863ZM154.297 39.3103C154.297 36.4406 152.778 34.3029 149.459 33.2336C147.856 32.7337 146.186 32.487 144.507 32.5024H140.006V45.5552C141.4 45.789 142.812 45.9021 144.226 45.8934C151.597 45.8934 154.297 43.1927 154.297 39.3103Z" fill="#EEEEEE"/>
<path d="M187.663 45.3307C188.957 45.3307 189.633 46.0061 189.633 47.4694C189.633 48.8759 188.957 49.607 187.663 49.607H172.135C170.39 49.607 169.659 48.8759 169.659 47.1312V14.7232C169.659 13.4291 170.39 12.7546 172.022 12.7546C173.653 12.7546 174.441 13.4291 174.441 14.7232V45.3307H187.663Z" fill="#EEEEEE"/>
<path d="M203.537 47.919C203.537 49.2131 202.806 49.8885 201.174 49.8885C199.542 49.8885 198.754 49.2131 198.754 47.919V14.7232C198.754 13.4291 199.486 12.7546 201.118 12.7546C202.749 12.7546 203.537 13.4291 203.537 14.7232V47.919Z" fill="#EEEEEE"/>
<path d="M214.348 22.0937C214.348 16.1861 219.074 12.3604 226.106 12.3604C229.183 12.332 232.205 13.1703 234.827 14.7795C236.121 15.6231 236.741 16.2985 236.741 17.0863C236.741 18.1556 235.784 19.5054 234.659 19.5054C234.153 19.5054 233.646 19.1115 232.577 18.4928C230.641 17.263 228.4 16.6004 226.106 16.58C221.718 16.58 219.129 18.7743 219.129 21.8122C219.129 29.577 237.472 27.7199 237.472 39.7609C237.472 46.3997 232.014 50.2821 224.925 50.2821C221.543 50.3384 218.231 49.3131 215.473 47.3556C214.291 46.5121 213.616 45.7243 213.616 44.8807C213.616 43.8114 214.629 42.5173 215.698 42.5173C216.373 42.5173 216.823 42.9112 218.004 43.699C220.015 45.2174 222.462 46.0463 224.981 46.0625C229.426 46.0625 232.689 43.699 232.689 40.0414C232.689 31.4898 214.348 33.5151 214.348 22.0937Z" fill="#EEEEEE"/>
<path d="M275.905 14.7232V47.919C275.905 49.2131 275.174 49.8885 273.541 49.8885C271.91 49.8885 271.122 49.2131 271.122 47.919V32.7843H252.499V47.919C252.499 49.2131 251.768 49.8885 250.135 49.8885C248.504 49.8885 247.716 49.2131 247.716 47.919V14.7232C247.716 13.4291 248.447 12.7546 250.08 12.7546C251.711 12.7546 252.499 13.4291 252.499 14.7232V28.508H271.122V14.7232C271.122 13.4291 271.853 12.7546 273.485 12.7546C275.117 12.7547 275.905 13.4291 275.905 14.7232Z" fill="#EEEEEE"/>
<path d="M11.9153 3.78924C8.3866 5.82136 5.45094 8.74129 3.3999 12.259C4.37765 10.6445 5.949 9.47732 7.77712 9.00763C9.60523 8.53793 11.5446 8.80313 13.1795 9.74636C16.6332 11.7403 17.6608 16.5227 15.8225 19.6103L15.8252 19.6148C16.6091 18.2436 17.7398 17.1026 19.1038 16.3062C20.4678 15.5098 22.0172 15.086 23.5966 15.0772C25.1761 15.0685 26.7301 15.4752 28.1028 16.2565C29.4756 17.0378 30.6188 18.1662 31.4178 19.5287C31.4302 19.5507 31.4394 19.5737 31.4521 19.5956C32.4108 21.2515 33.9877 22.4592 35.8363 22.9533C37.6848 23.4475 39.6539 23.1877 41.3111 22.2311C42.9683 21.2744 44.178 19.6991 44.6745 17.8512C45.1711 16.0033 44.9139 14.0339 43.9594 12.3754L43.9593 12.3753L43.9593 12.3752L43.959 12.3747L43.958 12.3731C40.8469 6.98596 35.7233 3.0552 29.7143 1.44544C23.7052 -0.164314 17.3028 0.678767 11.9153 3.78924Z" fill="#FFDC0D"/>
<path d="M15.8246 19.615L15.8219 19.6105C15.8994 19.4803 15.9645 19.3432 16.0318 19.2073C16.0665 19.1376 16.1062 19.0694 16.1384 18.999C17.5183 15.9231 16.412 11.6132 13.1789 9.74657C11.9558 9.03795 10.5507 8.70636 9.13987 8.79341L9.12073 8.79377C8.90511 8.80753 8.69067 8.83248 8.4777 8.86546C8.46464 8.86753 8.45138 8.86802 8.43832 8.87009C8.22799 8.90381 8.0197 8.94836 7.81333 9.00033C7.79837 9.0041 7.78308 9.00631 7.76814 9.01019C7.5625 9.06337 7.35966 9.12715 7.15934 9.19824C7.14459 9.20347 7.12931 9.20725 7.11458 9.21248C6.91469 9.2849 6.71839 9.36767 6.5252 9.45749C6.51102 9.46419 6.49628 9.4693 6.48214 9.47599C6.29062 9.56668 6.10351 9.66744 5.91996 9.77493C5.90514 9.7837 5.88963 9.79089 5.87486 9.79964C5.69463 9.90699 5.51967 10.0242 5.34853 10.1477C5.3318 10.1598 5.31413 10.1703 5.29747 10.1826C5.13114 10.3046 4.97092 10.4365 4.81453 10.5736C4.7949 10.5908 4.77412 10.6063 4.7547 10.6237C4.60496 10.758 4.46205 10.9017 4.32273 11.0496C4.29929 11.0745 4.27425 11.0974 4.25113 11.1227C4.11986 11.2661 3.99616 11.4185 3.87545 11.5743C3.84812 11.6096 3.81882 11.6424 3.79204 11.6785C3.68087 11.8274 3.57779 11.9849 3.47689 12.1445C3.425 12.2267 3.36804 12.3037 3.31902 12.3886C3.28944 12.4398 3.26732 12.493 3.23911 12.5446C1.38963 15.7977 0.349992 19.448 0.207965 23.1874L0.188477 58.4008C0.188473 58.8735 0.28157 59.3415 0.462452 59.7782C0.643334 60.2149 0.908459 60.6117 1.24269 60.946C1.57692 61.2802 1.97371 61.5453 2.41041 61.7262C2.8471 61.9071 3.31515 62.0002 3.78783 62.0002H5.60744C7.99964 62.0002 10.2939 61.0499 11.9854 59.3584C13.6769 57.6668 14.6273 55.3726 14.6273 52.9804V23.9672C14.6492 22.4357 15.0628 20.9353 15.8287 19.6089L15.8283 19.609L15.8246 19.615Z" fill="#007AFF"/>
<path d="M44.0263 12.4943C44.083 12.5975 44.128 12.7037 44.1792 12.8085C44.2261 12.9038 44.276 12.9983 44.3184 13.0947C44.36 13.1903 44.394 13.2873 44.4312 13.3839C44.4833 13.5183 44.5367 13.6522 44.5803 13.7882C44.5982 13.8446 44.6112 13.9017 44.6277 13.9583C44.6798 14.1356 44.7288 14.3133 44.7668 14.4925C44.7692 14.504 44.7704 14.5154 44.7727 14.5268C45.1196 16.2023 44.8599 17.9465 44.0399 19.4483C43.22 20.9501 41.8933 22.1118 40.2963 22.7261C38.6993 23.3403 36.9361 23.3673 35.3211 22.8021C33.7061 22.2369 32.3444 21.1164 31.479 19.6404C32.2614 20.9976 32.6721 22.5371 32.6696 24.1037C32.6692 26.4834 31.7287 28.7666 30.0527 30.456C28.3768 32.1454 26.1013 33.1043 23.7217 33.1237C23.6965 33.1233 23.6719 33.1198 23.6466 33.1198C21.7315 33.1197 19.8948 33.8804 18.5405 35.2345C17.1863 36.5886 16.4254 38.4252 16.4253 40.3403C16.4252 42.2554 17.1859 44.0921 18.54 45.4464C19.8941 46.8006 21.7307 47.5615 23.6458 47.5616H23.6465L23.6486 47.5615C27.7546 47.5618 31.7888 46.4841 35.3477 44.4362C38.9066 42.3883 41.8655 39.442 43.9285 35.8918C45.9915 32.3417 47.0863 28.3121 47.1035 24.2061C47.1207 20.1001 46.0596 16.0616 44.0263 12.4943V12.4943Z" fill="#FF8000"/>
<path d="M376.177 45.5682C377.913 45.5682 379.495 44.0562 379.495 41.4102C379.495 39.0442 378.389 37.4902 376.443 37.4902C375.631 37.4902 374.805 37.9242 374.147 38.4982L374.189 37.1822V34.2282H372.593V45.3862H373.853L374.007 44.5882H374.049C374.707 45.2182 375.477 45.5682 376.177 45.5682ZM375.869 44.2382C375.393 44.2382 374.777 44.0562 374.189 43.5382V39.7722C374.833 39.1422 375.421 38.8342 376.023 38.8342C377.311 38.8342 377.829 39.8282 377.829 41.4382C377.829 43.2442 376.989 44.2382 375.869 44.2382ZM384.603 45.5682C385.611 45.5682 386.493 45.2322 387.207 44.7562L386.647 43.7342C386.087 44.0982 385.499 44.3082 384.813 44.3082C383.483 44.3082 382.559 43.4262 382.433 41.9562H387.431C387.473 41.7742 387.501 41.4522 387.501 41.1442C387.501 38.9602 386.409 37.4902 384.365 37.4902C382.559 37.4902 380.851 39.0442 380.851 41.5502C380.851 44.0842 382.517 45.5682 384.603 45.5682ZM382.419 40.8502C382.573 39.4922 383.427 38.7502 384.393 38.7502C385.513 38.7502 386.115 39.5202 386.115 40.8502H382.419ZM391.753 45.5682C392.313 45.5682 392.831 45.4282 393.265 45.2882L392.971 44.0982C392.747 44.1962 392.411 44.2802 392.145 44.2802C391.347 44.2802 391.025 43.8042 391.025 42.8802V38.9742H393.027V37.6862H391.025V35.5582H389.667L389.485 37.6862L388.295 37.7702V38.9742H389.415V42.8662C389.415 44.4902 390.017 45.5682 391.753 45.5682ZM396.192 45.5682C397.116 45.5682 397.942 45.1062 398.642 44.5042H398.684L398.824 45.3862H400.14V40.7522C400.14 38.7082 399.258 37.4902 397.34 37.4902C396.108 37.4902 395.03 37.9942 394.232 38.4982L394.834 39.5902C395.492 39.1702 396.248 38.8062 397.06 38.8062C398.194 38.8062 398.516 39.5902 398.53 40.4862C395.324 40.8362 393.924 41.6902 393.924 43.3422C393.924 44.7002 394.862 45.5682 396.192 45.5682ZM396.682 44.2942C395.996 44.2942 395.478 43.9862 395.478 43.2302C395.478 42.3622 396.248 41.7882 398.53 41.5082V43.3982C397.9 43.9722 397.354 44.2942 396.682 44.2942Z" fill="#FF6262"/>
</svg>
