<svg width="188" height="26" viewBox="0 0 188 26" fill="none" xmlns="http://www.w3.org/2000/svg">
<path d="M127.113 20.4129C127.123 20.4749 127.118 20.5385 127.099 20.5983C127.079 20.6581 127.044 20.7124 126.998 20.7569C126.952 20.8013 126.896 20.8345 126.834 20.8537C126.772 20.8729 126.706 20.8776 126.642 20.8674C126.295 20.8674 126.122 20.7239 126.122 20.4129V4.73985C126.111 4.67783 126.116 4.61427 126.136 4.55442C126.156 4.49457 126.19 4.44016 126.236 4.39569C126.282 4.35122 126.338 4.31796 126.4 4.29868C126.462 4.2794 126.528 4.27465 126.592 4.28481C126.939 4.28481 127.113 4.42833 127.113 4.73985V20.4129Z" fill="#000028"/>
<path d="M132.742 7.27622C132.589 7.27387 132.439 7.22796 132.313 7.14422C132.186 7.06048 132.088 6.94263 132.031 6.80536C131.973 6.66809 131.959 6.51749 131.989 6.37237C132.02 6.22724 132.094 6.09401 132.202 5.98932C132.311 5.88462 132.449 5.81309 132.599 5.78366C132.749 5.75422 132.905 5.76819 133.048 5.82381C133.19 5.87943 133.312 5.97425 133.398 6.09642C133.485 6.21859 133.533 6.36271 133.535 6.51079C133.54 6.61273 133.524 6.71466 133.486 6.80995C133.448 6.90525 133.39 6.99179 133.315 7.06396C133.24 7.13614 133.15 7.19233 133.052 7.22889C132.953 7.26546 132.848 7.28158 132.742 7.27622ZM133.213 20.4132C133.223 20.4752 133.219 20.5388 133.199 20.5986C133.179 20.6584 133.144 20.7128 133.098 20.7572C133.052 20.8016 132.996 20.8348 132.934 20.854C132.872 20.8732 132.806 20.8779 132.742 20.8677C132.395 20.8677 132.222 20.7242 132.222 20.4132V10.7218C132.211 10.6598 132.216 10.5963 132.236 10.5365C132.256 10.4767 132.29 10.4224 132.336 10.3779C132.382 10.3335 132.439 10.3003 132.501 10.2811C132.562 10.2619 132.628 10.2571 132.692 10.2673C133.039 10.2673 133.213 10.4108 133.213 10.7218V20.4132Z" fill="#000028"/>
<path d="M139.288 10.7217V11.9421C139.907 10.9853 141.196 10.1715 143.03 10.1715C144.417 10.1715 145.508 10.6021 146.152 11.4877C146.647 12.1574 146.895 13.0908 146.895 14.3592V20.4131C146.906 20.4751 146.901 20.5386 146.881 20.5984C146.861 20.6582 146.827 20.7125 146.781 20.757C146.735 20.8014 146.678 20.8346 146.616 20.8538C146.554 20.873 146.489 20.8778 146.424 20.8676C146.077 20.8676 145.904 20.7241 145.904 20.4131V14.4788C145.904 13.641 145.78 12.732 145.284 12.0617C144.764 11.3681 143.946 11.0332 142.831 11.0332C141.097 11.0332 139.882 11.9182 139.312 12.8756V20.4131C139.323 20.4751 139.318 20.5386 139.298 20.5985C139.278 20.6583 139.244 20.7126 139.198 20.757C139.152 20.8015 139.095 20.8347 139.033 20.8539C138.971 20.8731 138.906 20.8778 138.841 20.8676C138.495 20.8676 138.321 20.7241 138.321 20.4131V10.7217C138.321 10.4346 138.47 10.2672 138.817 10.2672C139.164 10.2672 139.288 10.4346 139.288 10.7217Z" fill="#000028"/>
<path d="M159.783 20.6043C159.783 20.7717 159.635 20.8674 159.263 20.8674C159.096 20.8686 158.931 20.8325 158.78 20.762C158.63 20.6915 158.498 20.5884 158.396 20.4608L152.87 15.4359V20.4129C152.88 20.4749 152.875 20.5385 152.855 20.5983C152.835 20.6581 152.801 20.7124 152.755 20.7569C152.709 20.8013 152.653 20.8345 152.591 20.8537C152.529 20.8729 152.463 20.8776 152.399 20.8674C152.052 20.8674 151.879 20.7239 151.879 20.4129V4.73985C151.868 4.67783 151.873 4.61427 151.893 4.55442C151.913 4.49457 151.947 4.44016 151.993 4.39569C152.039 4.35122 152.095 4.31796 152.157 4.29868C152.219 4.2794 152.285 4.27465 152.349 4.28481C152.696 4.28481 152.87 4.42833 152.87 4.73985V15.1244L158.073 10.6976C158.42 10.3866 158.619 10.267 158.941 10.267C159.313 10.267 159.461 10.3388 159.461 10.5301C159.461 10.6497 159.313 10.7932 158.619 11.3679L153.985 15.244L159.337 20.0541C159.659 20.3172 159.783 20.5086 159.783 20.6043Z" fill="#000028"/>
<path d="M31.2554 15.9315C30.6338 15.9397 30.013 15.8837 29.4036 15.7646V20.0327C29.4036 20.5811 29.0827 20.8673 28.3664 20.8673C27.6504 20.8673 27.3047 20.5811 27.3047 20.0327V6.77568C27.3047 6.15602 27.3047 5.55996 28.3419 5.32137C29.2206 5.15871 30.1136 5.07881 31.0083 5.08278C34.8111 5.08278 37.6015 6.75207 37.6015 10.4477C37.6015 14.1197 34.8604 15.9315 31.2554 15.9315ZM31.1074 14.191C33.7987 14.191 35.4039 12.9036 35.4039 10.5194C35.4039 7.89655 33.4779 6.84734 30.9839 6.84734C30.4539 6.85198 29.9253 6.89979 29.4036 6.99025V14.0241C29.9642 14.1351 30.5351 14.191 31.1074 14.191Z" fill="#000028"/>
<path d="M51.6781 17.0284C51.943 16.3096 52.0687 15.5498 52.0487 14.7871V5.9651C52.0487 5.41667 52.3696 5.13086 53.0362 5.13086C53.7028 5.13086 54.0486 5.41667 54.0486 5.9651V14.7635C54.0486 16.0032 53.8757 17.0524 53.5055 17.9107C52.5425 20.128 50.4929 21.0343 47.9003 21.0343C45.2827 21.0343 43.2829 20.152 42.295 17.9107C41.9248 17.076 41.752 16.0272 41.752 14.7871V5.9651C41.752 5.41667 42.0728 5.13086 42.7892 5.13086C43.5051 5.13086 43.8509 5.41667 43.8509 5.9651V14.7871C43.8509 15.9079 43.9989 16.48 44.2211 17.0284C44.8383 18.5544 46.1226 19.2697 47.9496 19.2697C49.7521 19.2697 51.0609 18.5544 51.6781 17.0284Z" fill="#000028"/>
<path d="M69.8559 16.5516C69.8559 19.1268 67.6828 20.915 63.189 20.915C62.2517 20.9261 61.316 20.8382 60.3986 20.6528C59.3618 20.4142 59.3369 19.8898 59.3369 19.2221V6.77569C59.3369 6.03673 59.3618 5.63121 60.3986 5.3454C61.3156 5.15729 62.2516 5.0692 63.189 5.08278C67.2384 5.08278 69.2631 6.63278 69.2631 9.06464C69.2631 10.8292 68.2014 12.1642 65.979 12.6174C68.5223 13.0465 69.8559 14.5012 69.8559 16.5516ZM61.3616 6.96664V11.902H63.2876C63.9577 11.909 64.6245 11.8126 65.263 11.6162C66.4731 11.2107 67.0411 10.3761 67.0411 9.30323C67.0411 7.82489 65.8803 6.82332 63.1148 6.82332C62.5272 6.82272 61.9407 6.87066 61.3616 6.96664ZM67.6335 16.3847C67.6335 15.1685 66.9668 14.2626 65.5101 13.8095C64.8068 13.5976 64.0736 13.4931 63.337 13.4997H61.3616V19.0311C61.9735 19.1302 62.593 19.1781 63.2134 19.1744C66.4482 19.1744 67.6335 18.0299 67.6335 16.3847Z" fill="#000028"/>
<path d="M82.2755 18.9359C82.8434 18.9359 83.1399 19.2221 83.1399 19.8422C83.1399 20.4382 82.8434 20.7481 82.2755 20.7481H75.4606C74.6949 20.7481 74.374 20.4382 74.374 19.6988V5.9651C74.374 5.41667 74.6949 5.13086 75.4112 5.13086C76.1272 5.13086 76.4729 5.41667 76.4729 5.9651V18.9359H82.2755Z" fill="#000028"/>
<path d="M89.2415 20.0327C89.2415 20.5811 88.9206 20.8673 88.2043 20.8673C87.4883 20.8673 87.1426 20.5811 87.1426 20.0327V5.9651C87.1426 5.41667 87.4634 5.13086 88.1798 5.13086C88.8957 5.13086 89.2415 5.41667 89.2415 5.9651V20.0327Z" fill="#000028"/>
<path d="M93.9863 9.08875C93.9863 6.58522 96.0604 4.96398 99.1467 4.96398C100.497 4.95194 101.823 5.30723 102.974 5.98917C103.542 6.34664 103.814 6.63286 103.814 6.96672C103.814 7.41987 103.394 7.9919 102.9 7.9919C102.678 7.9919 102.456 7.82497 101.986 7.56277C101.137 7.04162 100.153 6.7608 99.1467 6.75215C97.2207 6.75215 96.0848 7.68207 96.0848 8.96945C96.0848 12.26 104.135 11.473 104.135 16.5757C104.135 19.3891 101.739 21.0343 98.6281 21.0343C97.1439 21.0582 95.6906 20.6237 94.4801 19.7942C93.9614 19.4367 93.665 19.1028 93.665 18.7454C93.665 18.2922 94.1099 17.7438 94.5787 17.7438C94.8751 17.7438 95.0725 17.9107 95.5911 18.2446C96.4735 18.888 97.5473 19.2393 98.653 19.2462C100.603 19.2462 102.036 18.2446 102.036 16.6946C102.036 13.0706 93.9863 13.9289 93.9863 9.08875Z" fill="#000028"/>
<path d="M121.002 5.9651V20.0327C121.002 20.5811 120.681 20.8673 119.964 20.8673C119.249 20.8673 118.903 20.5811 118.903 20.0327V13.619H110.73V20.0327C110.73 20.5811 110.409 20.8673 109.693 20.8673C108.977 20.8673 108.631 20.5811 108.631 20.0327V5.9651C108.631 5.41667 108.952 5.13086 109.668 5.13086C110.384 5.13086 110.73 5.41667 110.73 5.9651V11.8068H118.903V5.9651C118.903 5.41667 119.224 5.13086 119.94 5.13086C120.656 5.13087 121.002 5.41667 121.002 5.9651Z" fill="#000028"/>
<path d="M5.14725 1.33185C3.59863 2.19302 2.31028 3.43042 1.41016 4.92115C1.83925 4.23696 2.52886 3.74233 3.33115 3.54328C4.13344 3.34424 4.98456 3.45662 5.70206 3.85634C7.21774 4.70133 7.66874 6.72798 6.86198 8.03644L6.86314 8.03837C7.20718 7.45729 7.70338 6.97375 8.302 6.63625C8.90061 6.29875 9.58059 6.11914 10.2738 6.11545C10.9669 6.11175 11.6489 6.28409 12.2514 6.61518C12.8538 6.94628 13.3555 7.42449 13.7062 8.00187C13.7116 8.01118 13.7156 8.02093 13.7212 8.03022C14.142 8.73197 14.834 9.24374 15.6453 9.45315C16.4565 9.66256 17.3207 9.55247 18.048 9.14707C18.7752 8.74167 19.3061 8.0741 19.5241 7.291C19.742 6.50789 19.6291 5.67328 19.2102 4.97049L19.2102 4.97045L19.2101 4.9704L19.21 4.97019L19.2096 4.9695C17.8442 2.68655 15.5957 1.02078 12.9585 0.338607C10.3214 -0.343572 7.51162 0.0137065 5.14725 1.33185Z" fill="#FFDC0D"/>
<path d="M6.86209 8.03812L6.86093 8.03622C6.89494 7.98103 6.92351 7.92295 6.95306 7.86533C6.96827 7.83583 6.98571 7.80689 6.99984 7.77708C7.60543 6.47358 7.11989 4.64716 5.70101 3.85611C5.16425 3.55582 4.54759 3.41529 3.92843 3.45218L3.92003 3.45234C3.8254 3.45817 3.7313 3.46874 3.63783 3.48272C3.6321 3.4836 3.62628 3.4838 3.62055 3.48468C3.52824 3.49897 3.43683 3.51785 3.34626 3.53987C3.3397 3.54147 3.33299 3.54241 3.32643 3.54405C3.23618 3.56659 3.14716 3.59362 3.05925 3.62374C3.05278 3.62596 3.04607 3.62756 3.03961 3.62978C2.95189 3.66047 2.86574 3.69554 2.78095 3.73361C2.77473 3.73645 2.76826 3.73861 2.76205 3.74145C2.678 3.77988 2.59589 3.82258 2.51534 3.86813C2.50883 3.87185 2.50202 3.87489 2.49554 3.8786C2.41645 3.9241 2.33966 3.97377 2.26456 4.02612C2.25721 4.03123 2.24946 4.03567 2.24215 4.04088C2.16915 4.09261 2.09883 4.14847 2.0302 4.2066C2.02159 4.21388 2.01247 4.22043 2.00395 4.2278C1.93823 4.28475 1.87551 4.34561 1.81437 4.40829C1.80408 4.41886 1.79309 4.42857 1.78295 4.43929C1.72534 4.50005 1.67105 4.56463 1.61807 4.63065C1.60608 4.64561 1.59322 4.65954 1.58147 4.67481C1.53268 4.73794 1.48744 4.80469 1.44316 4.87231C1.42039 4.90713 1.39539 4.93978 1.37388 4.97573C1.3609 4.99744 1.35119 5.01999 1.33881 5.04186C0.527142 6.42044 0.070883 7.96736 0.00855277 9.55203L0 24.4747C-1.72391e-06 24.675 0.0408551 24.8733 0.120238 25.0584C0.19962 25.2434 0.315974 25.4116 0.462655 25.5532C0.609336 25.6949 0.783473 25.8072 0.975122 25.8839C1.16677 25.9605 1.37218 26 1.57962 26H2.37818C3.42803 26 4.43487 25.5973 5.17723 24.8804C5.91958 24.1636 6.33664 23.1914 6.33666 22.1776V9.88249C6.34625 9.23348 6.52776 8.59764 6.86391 8.03554L6.86373 8.03559L6.86209 8.03812Z" fill="#007AFF"/>
<path d="M19.239 5.02063C19.2639 5.06436 19.2837 5.1094 19.3061 5.15381C19.3267 5.1942 19.3486 5.23423 19.3672 5.27508C19.3855 5.31558 19.4004 5.35669 19.4167 5.39764C19.4396 5.45458 19.463 5.51132 19.4822 5.56898C19.49 5.59286 19.4957 5.61706 19.5029 5.64104C19.5258 5.7162 19.5473 5.7915 19.564 5.86743C19.565 5.87229 19.5656 5.87713 19.5666 5.88197C19.7188 6.59202 19.6048 7.33118 19.245 7.9676C18.8852 8.60402 18.3029 9.09631 17.6021 9.35663C16.9012 9.61695 16.1274 9.62837 15.4186 9.38886C14.7099 9.14935 14.1123 8.67449 13.7325 8.04899C14.0759 8.62414 14.2561 9.27657 14.255 9.94046C14.2548 10.9489 13.8421 11.9165 13.1066 12.6324C12.3711 13.3483 11.3724 13.7547 10.3281 13.7629C10.317 13.7627 10.3063 13.7613 10.2951 13.7613C9.45468 13.7612 8.64861 14.0836 8.05428 14.6574C7.45994 15.2312 7.12602 16.0096 7.12598 16.8211C7.12593 17.6327 7.45976 18.4111 8.05402 18.985C8.64829 19.5589 9.45432 19.8813 10.2948 19.8814H10.2951L10.296 19.8813C12.098 19.8814 13.8684 19.4247 15.4303 18.5569C16.9922 17.689 18.2907 16.4405 19.1961 14.936C20.1015 13.4315 20.582 11.7239 20.5895 9.98385C20.597 8.24382 20.1314 6.53236 19.239 5.02063V5.02063Z" fill="#FF8000"/>
<path d="M167.291 20.3739C168.531 20.3739 169.661 19.2939 169.661 17.4039C169.661 15.7139 168.871 14.6039 167.481 14.6039C166.901 14.6039 166.311 14.9139 165.841 15.3239L165.871 14.3839V12.2739H164.731V20.2439H165.631L165.741 19.6739H165.771C166.241 20.1239 166.791 20.3739 167.291 20.3739ZM167.071 19.4239C166.731 19.4239 166.291 19.2939 165.871 18.9239V16.2339C166.331 15.7839 166.751 15.5639 167.181 15.5639C168.101 15.5639 168.471 16.2739 168.471 17.4239C168.471 18.7139 167.871 19.4239 167.071 19.4239ZM173.31 20.3739C174.03 20.3739 174.66 20.1339 175.17 19.7939L174.77 19.0639C174.37 19.3239 173.95 19.4739 173.46 19.4739C172.51 19.4739 171.85 18.8439 171.76 17.7939H175.33C175.36 17.6639 175.38 17.4339 175.38 17.2139C175.38 15.6539 174.6 14.6039 173.14 14.6039C171.85 14.6039 170.63 15.7139 170.63 17.5039C170.63 19.3139 171.82 20.3739 173.31 20.3739ZM171.75 17.0039C171.86 16.0339 172.47 15.5039 173.16 15.5039C173.96 15.5039 174.39 16.0539 174.39 17.0039H171.75ZM178.417 20.3739C178.817 20.3739 179.187 20.2739 179.497 20.1739L179.287 19.3239C179.127 19.3939 178.887 19.4539 178.697 19.4539C178.127 19.4539 177.897 19.1139 177.897 18.4539V15.6639H179.327V14.7439H177.897V13.2239H176.927L176.797 14.7439L175.947 14.8039V15.6639H176.747V18.4439C176.747 19.6039 177.177 20.3739 178.417 20.3739ZM181.588 20.3739C182.248 20.3739 182.838 20.0439 183.338 19.6139H183.368L183.468 20.2439H184.408V16.9339C184.408 15.4739 183.778 14.6039 182.408 14.6039C181.528 14.6039 180.758 14.9639 180.188 15.3239L180.618 16.1039C181.088 15.8039 181.628 15.5439 182.208 15.5439C183.018 15.5439 183.248 16.1039 183.258 16.7439C180.968 16.9939 179.968 17.6039 179.968 18.7839C179.968 19.7539 180.638 20.3739 181.588 20.3739ZM181.938 19.4639C181.448 19.4639 181.078 19.2439 181.078 18.7039C181.078 18.0839 181.628 17.6739 183.258 17.4739V18.8239C182.808 19.2339 182.418 19.4639 181.938 19.4639Z" fill="#EB5757"/>
</svg>
