<svg width="40" height="40" viewBox="0 0 40 40" fill="none" xmlns="http://www.w3.org/2000/svg">
<path d="M14.4995 7.49415C12.8448 8.41714 11.4682 9.74337 10.5064 11.3411C10.9649 10.6078 11.7018 10.0777 12.559 9.86434C13.4163 9.65101 14.3257 9.77146 15.0924 10.1999C16.7119 11.1055 17.1938 13.2777 16.3317 14.6801L16.333 14.6821C16.7006 14.0593 17.2308 13.5411 17.8704 13.1794C18.51 12.8176 19.2366 12.6251 19.9773 12.6212C20.7179 12.6172 21.4466 12.8019 22.0903 13.1568C22.7341 13.5116 23.2701 14.0242 23.6448 14.643C23.6506 14.653 23.655 14.6634 23.6609 14.6734C24.1105 15.4255 24.8499 15.9741 25.7168 16.1985C26.5836 16.4229 27.507 16.3049 28.2841 15.8704C29.0612 15.4359 29.6285 14.7204 29.8613 13.8811C30.0942 13.0418 29.9735 12.1473 29.526 11.394L29.5259 11.394L29.5259 11.3939L29.5258 11.3937L29.5253 11.3929C28.0664 8.9461 25.6638 7.16075 22.846 6.4296C20.0282 5.69844 17.0259 6.08137 14.4995 7.49415Z" fill="#FFDC0D"/>
<path d="M16.3322 14.6819L16.331 14.6799C16.3673 14.6207 16.3978 14.5585 16.4294 14.4967C16.4457 14.4651 16.4643 14.4341 16.4794 14.4021C17.1265 13.0051 16.6077 11.0475 15.0916 10.1997C14.5181 9.87782 13.8592 9.72721 13.1976 9.76675L13.1886 9.76691C13.0875 9.77316 12.9869 9.78449 12.8871 9.79947C12.8809 9.80041 12.8747 9.80064 12.8686 9.80158C12.77 9.81689 12.6723 9.83713 12.5755 9.86073C12.5685 9.86244 12.5613 9.86345 12.5543 9.86521C12.4579 9.88937 12.3628 9.91833 12.2688 9.95062C12.2619 9.953 12.2548 9.95471 12.2479 9.95709C12.1541 9.98998 12.0621 10.0276 11.9715 10.0684C11.9648 10.0714 11.9579 10.0737 11.9513 10.0768C11.8615 10.118 11.7737 10.1637 11.6877 10.2126C11.6807 10.2165 11.6734 10.2198 11.6665 10.2238C11.582 10.2725 11.5 10.3258 11.4197 10.3819C11.4119 10.3874 11.4036 10.3921 11.3958 10.3977C11.3178 10.4532 11.2426 10.513 11.1693 10.5753C11.1601 10.5831 11.1503 10.5901 11.1412 10.598C11.071 10.6591 11.004 10.7243 10.9387 10.7915C10.9277 10.8028 10.9159 10.8132 10.9051 10.8247C10.8435 10.8898 10.7855 10.9591 10.7289 11.0298C10.7161 11.0458 10.7024 11.0608 10.6898 11.0771C10.6377 11.1448 10.5893 11.2163 10.542 11.2888C10.5177 11.3261 10.491 11.3611 10.468 11.3997C10.4541 11.4229 10.4438 11.4471 10.4305 11.4705C9.56326 12.9481 9.07574 14.6061 9.00914 16.3045L9 32.2985C9 32.5131 9.04365 32.7257 9.12848 32.9241C9.2133 33.1224 9.33762 33.3027 9.49435 33.4545C9.65108 33.6063 9.83715 33.7267 10.0419 33.8089C10.2467 33.891 10.4662 33.9333 10.6878 33.9333H11.5411C12.6629 33.9333 13.7387 33.5017 14.5319 32.7334C15.3251 31.9651 15.7708 30.9231 15.7708 29.8365V16.6587C15.781 15.9631 15.975 15.2816 16.3342 14.6792L16.334 14.6792L16.3322 14.6819Z" fill="#007AFF"/>
<path d="M29.557 11.4478C29.5836 11.4947 29.6047 11.5429 29.6287 11.5905C29.6507 11.6338 29.6741 11.6767 29.694 11.7205C29.7135 11.7639 29.7294 11.808 29.7469 11.8519C29.7713 11.9129 29.7963 11.9737 29.8168 12.0355C29.8252 12.0611 29.8313 12.087 29.839 12.1127C29.8634 12.1933 29.8864 12.274 29.9042 12.3554C29.9054 12.3606 29.9059 12.3658 29.907 12.371C30.0697 13.132 29.9479 13.9242 29.5634 14.6063C29.1789 15.2884 28.5568 15.8161 27.8079 16.0951C27.059 16.3741 26.2322 16.3863 25.4749 16.1296C24.7176 15.8729 24.079 15.364 23.6732 14.6936C24.0401 15.31 24.2327 16.0093 24.2315 16.7208C24.2313 17.8017 23.7903 18.8387 23.0044 19.606C22.2185 20.3733 21.1514 20.8089 20.0356 20.8177C20.0237 20.8175 20.0122 20.8159 20.0004 20.8159C19.1023 20.8159 18.241 21.1614 17.606 21.7764C16.9709 22.3914 16.6141 23.2256 16.6141 24.0955C16.614 24.9653 16.9707 25.7995 17.6057 26.4147C18.2407 27.0298 19.1019 27.3754 20 27.3754H20.0003L20.0013 27.3753C21.9267 27.3755 23.8185 26.886 25.4873 25.9558C27.1562 25.0257 28.5437 23.6875 29.5111 22.075C30.4785 20.4625 30.9919 18.6323 31 16.7673C31.0081 14.9024 30.5105 13.068 29.557 11.4478V11.4478Z" fill="#FF8000"/>
</svg>
