<?xml version="1.0" encoding="utf-8"?>
<!-- Generator: Adobe Illustrator 24.1.1, SVG Export Plug-In . SVG Version: 6.00 Build 0)  -->
<!DOCTYPE svg PUBLIC "-//W3C//DTD SVG 1.1//EN" "http://www.w3.org/Graphics/SVG/1.1/DTD/svg11.dtd" [
	<!ENTITY ns_extend "http://ns.adobe.com/Extensibility/1.0/">
	<!ENTITY ns_ai "http://ns.adobe.com/AdobeIllustrator/10.0/">
	<!ENTITY ns_graphs "http://ns.adobe.com/Graphs/1.0/">
	<!ENTITY ns_vars "http://ns.adobe.com/Variables/1.0/">
	<!ENTITY ns_imrep "http://ns.adobe.com/ImageReplacement/1.0/">
	<!ENTITY ns_sfw "http://ns.adobe.com/SaveForWeb/1.0/">
	<!ENTITY ns_custom "http://ns.adobe.com/GenericCustomNamespace/1.0/">
	<!ENTITY ns_adobe_xpath "http://ns.adobe.com/XPath/1.0/">
]>
<svg version="1.1" id="레이어_1" xmlns:x="&ns_extend;" xmlns:i="&ns_ai;" xmlns:graph="&ns_graphs;"
	 xmlns="http://www.w3.org/2000/svg" xmlns:xlink="http://www.w3.org/1999/xlink" x="0px" y="0px" width="20px" height="20px"
	 viewBox="0 0 20 20" style="enable-background:new 0 0 20 20;" xml:space="preserve">
<style type="text/css">
	.st0{fill:#999999;}
	.st1{fill:none;}
</style>
<metadata>
	<sfw  xmlns="&ns_sfw;">
		<slices></slices>
		<sliceSourceBounds  bottomLeftOrigin="true" height="24" width="24" x="-2.4" y="-20.8"></sliceSourceBounds>
	</sfw>
</metadata>
<g>
	<path class="st0" d="M16.5,11.4l-1.9-4.9c-1.2-3-3.7-4.9-6.8-4.5L7.6,1.4c-0.3-0.8-1.2-1.2-2-0.9s-1.2,1.2-0.9,2l0.3,0.7
		C2.4,4.9,1.8,8,2.9,11l1.9,4.9l-1.2,2.7l0.4,1l15.6-6.1l-0.4-1L16.5,11.4z M12.9,19.5c1.1-0.4,1.6-1.6,1.2-2.7l-3.9,1.5
		C10.6,19.4,11.9,19.9,12.9,19.5z"/>
</g>
<path class="st1" d="M-2.4-3.2h24v24h-24V-3.2z"/>
</svg>
