<?xml version="1.0" encoding="utf-8"?>
<!-- Generator: Adobe Illustrator 25.0.1, SVG Export Plug-In . SVG Version: 6.00 Build 0)  -->
<svg version="1.1" id="Layer_1" xmlns="http://www.w3.org/2000/svg" xmlns:xlink="http://www.w3.org/1999/xlink" x="0px" y="0px"
	 viewBox="0 0 24 24" style="enable-background:new 0 0 24 24;" xml:space="preserve">
<style type="text/css">
	.st0{fill-rule:evenodd;clip-rule:evenodd;fill:none;stroke:#FFFFFF;stroke-width:2;stroke-miterlimit:10;}
	.st1{fill:#FFFFFF;}
	.st2{fill-rule:evenodd;clip-rule:evenodd;fill:#FFFFFF;}
	.st3{fill-rule:evenodd;clip-rule:evenodd;fill:#001435;}
	.st4{fill:#333333;}
	.st5{fill-rule:evenodd;clip-rule:evenodd;fill:#333333;}
	.st6{fill:#FFE600;}
	.st7{fill:#F2F2F2;stroke:#E0E0E0;}
	.st8{fill:none;stroke:#FFFFFF;stroke-width:2;stroke-linecap:round;stroke-linejoin:round;stroke-miterlimit:10;}
	.st9{fill-rule:evenodd;clip-rule:evenodd;}
	.st10{font-family:'NotoSansCJKkr-Regular-KSCpc-EUC-H';}
	.st11{font-size:3.6913px;}
	.st12{fill-rule:evenodd;clip-rule:evenodd;fill:#BDBDBD;}
	.st13{fill-rule:evenodd;clip-rule:evenodd;fill-opacity:0.54;}
	.st14{fill:#001435;}
	.st15{fill-rule:evenodd;clip-rule:evenodd;fill:none;stroke:#BDBDBD;stroke-miterlimit:10;}
	.st16{fill:url(#SVGID_1_);}
	.st17{fill:#BDBDBD;}
	.st18{fill:none;stroke:#BDBDBD;stroke-width:2;stroke-linecap:round;stroke-linejoin:round;stroke-miterlimit:10;}
</style>
<text transform="matrix(1 0 0 1 -0.3955 -3.5654)" class="st10 st11">삭제</text>
<g>
	<path class="st4" d="M18.75,5.68c-1.13-0.78-2.83-1.24-4.8-1.45C13.7,2.97,12.68,2,11.45,2s-2.27,0.97-2.5,2.23
		c-1.98,0.21-3.67,0.67-4.8,1.45C3.69,6,3.9,6.78,4.44,6.78h14.05C19,6.78,19.2,6,18.75,5.68z M10.07,4.15
		c0.23-0.57,0.75-0.97,1.36-0.97c0.62,0,1.13,0.4,1.36,0.97c-0.44-0.02-0.9-0.04-1.36-0.04C10.97,4.11,10.51,4.13,10.07,4.15z"/>
	<path class="st4" d="M17.98,7.96H4.88c-0.25,0-0.46,0.23-0.42,0.48l1.49,12.02C6.06,21.35,6.82,22,7.7,22h7.43
		c0.88,0,1.64-0.65,1.75-1.54l1.49-12.02C18.42,8.17,18.23,7.96,17.98,7.96z M8.67,19.41c-0.02,0-0.02,0-0.04,0
		c-0.27,0-0.51-0.21-0.53-0.48l-0.65-7.83c-0.02-0.27,0.19-0.55,0.48-0.57c0.27-0.02,0.55,0.19,0.57,0.48l0.65,7.83
		C9.18,19.14,8.97,19.39,8.67,19.41z M11.96,18.88c0,0.29-0.23,0.53-0.53,0.53c-0.29,0-0.53-0.23-0.53-0.53v-7.83
		c0-0.29,0.23-0.53,0.53-0.53c0.29,0,0.53,0.23,0.53,0.53V18.88z M14.76,18.93c-0.02,0.27-0.25,0.48-0.53,0.48
		c-0.02,0-0.02,0-0.04,0c-0.29-0.02-0.51-0.27-0.48-0.57l0.65-7.83c0.02-0.29,0.27-0.51,0.57-0.48c0.29,0.02,0.51,0.27,0.48,0.57
		L14.76,18.93z"/>
</g>
</svg>
