<svg width="145" height="20" viewBox="0 0 145 20" fill="none" xmlns="http://www.w3.org/2000/svg">
<path d="M98.2594 15.7023C98.2675 15.75 98.2638 15.7989 98.2483 15.8449C98.2329 15.8909 98.2063 15.9327 98.1707 15.9669C98.1352 16.001 98.0916 16.0266 98.0437 16.0414C97.9959 16.0561 97.945 16.0598 97.8954 16.0519C97.6273 16.0519 97.4932 15.9415 97.4932 15.7023V3.64609C97.485 3.59839 97.4888 3.54949 97.5042 3.50345C97.5195 3.45742 97.5461 3.41556 97.5817 3.38135C97.6172 3.34714 97.6607 3.32156 97.7086 3.30673C97.7565 3.2919 97.8074 3.28824 97.8571 3.29606C98.1254 3.29606 98.2594 3.40646 98.2594 3.64609V15.7023Z" fill="#000028"/>
<path d="M102.611 5.59708C102.493 5.59527 102.378 5.55995 102.28 5.49554C102.182 5.43112 102.106 5.34046 102.062 5.23487C102.017 5.12928 102.006 5.01344 102.03 4.9018C102.053 4.79017 102.111 4.68768 102.194 4.60715C102.278 4.52661 102.385 4.47159 102.501 4.44895C102.617 4.42631 102.738 4.43705 102.848 4.47984C102.958 4.52262 103.052 4.59556 103.119 4.68954C103.186 4.78352 103.223 4.89438 103.224 5.00828C103.229 5.0867 103.216 5.1651 103.187 5.23841C103.157 5.31171 103.112 5.37828 103.054 5.4338C102.997 5.48932 102.927 5.53254 102.851 5.56067C102.775 5.5888 102.693 5.6012 102.611 5.59708ZM102.976 15.7025C102.984 15.7502 102.98 15.7991 102.964 15.8451C102.949 15.8911 102.922 15.9329 102.887 15.9671C102.851 16.0012 102.808 16.0268 102.76 16.0415C102.712 16.0563 102.661 16.0599 102.611 16.0521C102.343 16.0521 102.209 15.9417 102.209 15.7025V8.24752C102.201 8.19984 102.205 8.15099 102.22 8.10499C102.236 8.059 102.262 8.01719 102.298 7.98302C102.333 7.94886 102.377 7.92332 102.425 7.90852C102.473 7.89372 102.524 7.89009 102.573 7.89792C102.841 7.89792 102.976 8.00832 102.976 8.24752V15.7025Z" fill="#000028"/>
<path d="M107.671 8.24745V9.18627C108.15 8.45027 109.146 7.82425 110.563 7.82425C111.636 7.82425 112.479 8.15545 112.977 8.83667C113.36 9.35187 113.551 10.0699 113.551 11.0455V15.7024C113.56 15.7501 113.556 15.7989 113.54 15.8449C113.525 15.8909 113.498 15.9327 113.463 15.9669C113.427 16.0011 113.384 16.0266 113.336 16.0414C113.288 16.0562 113.237 16.0598 113.188 16.052C112.919 16.052 112.785 15.9416 112.785 15.7024V11.1375C112.785 10.4931 112.69 9.7939 112.306 9.27827C111.904 8.74467 111.272 8.48707 110.41 8.48707C109.069 8.48707 108.131 9.16787 107.69 9.9043V15.7024C107.698 15.7501 107.694 15.799 107.679 15.845C107.664 15.891 107.637 15.9328 107.601 15.967C107.566 16.0011 107.522 16.0267 107.474 16.0415C107.426 16.0563 107.376 16.0599 107.326 16.052C107.058 16.052 106.924 15.9416 106.924 15.7024V8.24745C106.924 8.02665 107.039 7.89785 107.307 7.89785C107.575 7.89785 107.671 8.02665 107.671 8.24745Z" fill="#000028"/>
<path d="M123.515 15.8495C123.515 15.9783 123.399 16.0519 123.112 16.0519C122.983 16.0528 122.855 16.0251 122.739 15.9708C122.623 15.9166 122.521 15.8373 122.442 15.7391L118.17 11.8738V15.7023C118.178 15.75 118.174 15.7989 118.159 15.8449C118.144 15.8909 118.117 15.9327 118.081 15.9669C118.046 16.001 118.002 16.0266 117.954 16.0414C117.907 16.0561 117.856 16.0598 117.806 16.0519C117.538 16.0519 117.404 15.9415 117.404 15.7023V3.64609C117.396 3.59839 117.399 3.54949 117.415 3.50345C117.43 3.45742 117.457 3.41556 117.492 3.38135C117.528 3.34714 117.571 3.32156 117.619 3.30673C117.667 3.2919 117.718 3.28824 117.768 3.29606C118.036 3.29606 118.17 3.40646 118.17 3.64609V11.6342L122.193 8.22895C122.461 7.98975 122.614 7.89776 122.863 7.89776C123.15 7.89776 123.265 7.95296 123.265 8.10015C123.265 8.19215 123.15 8.30255 122.614 8.74458L119.032 11.7262L123.17 15.4263C123.419 15.6287 123.515 15.7759 123.515 15.8495Z" fill="#000028"/>
<path d="M24.1609 12.2551C23.6803 12.2613 23.2005 12.2183 22.7294 12.1267V15.4098C22.7294 15.8317 22.4814 16.0518 21.9276 16.0518C21.3742 16.0518 21.1069 15.8317 21.1069 15.4098V5.2121C21.1069 4.73543 21.1069 4.27692 21.9087 4.0934C22.588 3.96827 23.2783 3.90681 23.9699 3.90987C26.9095 3.90987 29.0665 5.19393 29.0665 8.03674C29.0665 10.8614 26.9476 12.2551 24.1609 12.2551ZM24.0465 10.9162C26.1269 10.9162 27.3677 9.92588 27.3677 8.09186C27.3677 6.07431 25.8789 5.26722 23.951 5.26722C23.5413 5.27079 23.1327 5.30757 22.7294 5.37715V10.7878C23.1628 10.8732 23.6041 10.9162 24.0465 10.9162Z" fill="#000028"/>
<path d="M39.9482 13.0988C40.153 12.5459 40.2501 11.9614 40.2347 11.3747V4.58856C40.2347 4.1667 40.4827 3.94684 40.998 3.94684C41.5133 3.94684 41.7806 4.1667 41.7806 4.58856V11.3565C41.7806 12.3102 41.647 13.1173 41.3608 13.7775C40.6164 15.4831 39.032 16.1802 37.0279 16.1802C35.0045 16.1802 33.4586 15.5016 32.6949 13.7775C32.4088 13.1354 32.2751 12.3287 32.2751 11.3747V4.58856C32.2751 4.1667 32.5232 3.94684 33.0769 3.94684C33.6304 3.94684 33.8976 4.1667 33.8976 4.58856V11.3747C33.8976 12.2369 34.012 12.6769 34.1838 13.0988C34.661 14.2726 35.6537 14.8229 37.066 14.8229C38.4594 14.8229 39.471 14.2726 39.9482 13.0988Z" fill="#000028"/>
<path d="M53.9992 12.732C53.9992 14.7129 52.3194 16.0884 48.8456 16.0884C48.1211 16.097 47.3978 16.0294 46.6886 15.8868C45.8871 15.7032 45.8679 15.2998 45.8679 14.7862V5.21207C45.8679 4.64363 45.8871 4.3317 46.6886 4.11184C47.3975 3.96714 48.121 3.89938 48.8456 3.90983C51.9759 3.90983 53.541 5.10214 53.541 6.9728C53.541 8.33016 52.7203 9.3571 51.0023 9.70568C52.9683 10.0358 53.9992 11.1548 53.9992 12.732ZM47.433 5.35895V9.15541H48.9219C49.4398 9.16081 49.9553 9.08658 50.4489 8.93555C51.3843 8.62361 51.8233 7.98158 51.8233 7.15633C51.8233 6.01915 50.926 5.24871 48.7883 5.24871C48.3341 5.24824 47.8807 5.28512 47.433 5.35895ZM52.2813 12.6036C52.2813 11.6681 51.766 10.9713 50.6399 10.6227C50.0962 10.4597 49.5295 10.3793 48.96 10.3844H47.433V14.6393C47.906 14.7155 48.3849 14.7524 48.8645 14.7496C51.3651 14.7496 52.2813 13.8692 52.2813 12.6036Z" fill="#000028"/>
<path d="M63.5999 14.5661C64.0389 14.5661 64.268 14.7863 64.268 15.2632C64.268 15.7217 64.0389 15.9601 63.5999 15.9601H58.3319C57.74 15.9601 57.4919 15.7217 57.4919 15.153V4.58856C57.4919 4.1667 57.74 3.94684 58.2937 3.94684C58.8472 3.94684 59.1144 4.1667 59.1144 4.58856V14.5661H63.5999Z" fill="#000028"/>
<path d="M68.9845 15.4098C68.9845 15.8317 68.7365 16.0518 68.1827 16.0518C67.6293 16.0518 67.3621 15.8317 67.3621 15.4098V4.58856C67.3621 4.1667 67.6101 3.94684 68.1638 3.94684C68.7173 3.94684 68.9845 4.1667 68.9845 4.58856V15.4098Z" fill="#000028"/>
<path d="M72.6529 6.99137C72.6529 5.06558 74.2562 3.81847 76.642 3.81847C77.6856 3.80921 78.7109 4.0825 79.6004 4.60707C80.0395 4.88205 80.2497 5.10222 80.2497 5.35903C80.2497 5.70761 79.9251 6.14764 79.5434 6.14764C79.3716 6.14764 79.1999 6.01923 78.8371 5.81754C78.1804 5.41665 77.4199 5.20063 76.642 5.19398C75.1531 5.19398 74.275 5.9093 74.275 6.8996C74.275 9.43078 80.4977 8.82539 80.4977 12.7506C80.4977 14.9147 78.6461 16.1803 76.2411 16.1803C75.0938 16.1987 73.9703 15.8644 73.0346 15.2263C72.6337 14.9513 72.4045 14.6945 72.4045 14.4195C72.4045 14.071 72.7484 13.6491 73.1108 13.6491C73.34 13.6491 73.4925 13.7775 73.8934 14.0343C74.5755 14.5293 75.4056 14.7995 76.2603 14.8048C77.7681 14.8048 78.8752 14.0343 78.8752 12.842C78.8752 10.0543 72.6529 10.7145 72.6529 6.99137Z" fill="#000028"/>
<path d="M93.5354 4.58856V15.4098C93.5354 15.8317 93.2874 16.0518 92.7337 16.0518C92.1802 16.0518 91.913 15.8317 91.913 15.4098V10.4762H85.5951V15.4098C85.5951 15.8317 85.3471 16.0518 84.7933 16.0518C84.2399 16.0518 83.9727 15.8317 83.9727 15.4098V4.58856C83.9727 4.1667 84.2207 3.94684 84.7744 3.94684C85.3279 3.94684 85.5951 4.1667 85.5951 4.58856V9.08217H91.913V4.58856C91.913 4.1667 92.161 3.94684 92.7147 3.94684C93.2682 3.94684 93.5354 4.1667 93.5354 4.58856Z" fill="#000028"/>
<path d="M3.9789 1.0245C2.78181 1.68694 1.7859 2.63878 1.09009 3.7855C1.42179 3.2592 1.95486 2.87872 2.57504 2.72561C3.19522 2.57249 3.85315 2.65894 4.40778 2.96642C5.57942 3.61641 5.92805 5.17537 5.30442 6.18188L5.30531 6.18337C5.57126 5.73638 5.95483 5.36443 6.41756 5.10481C6.8803 4.84519 7.40593 4.70704 7.94176 4.70419C8.47758 4.70135 9.00477 4.83392 9.47046 5.08861C9.93616 5.34329 10.324 5.71115 10.5951 6.15529C10.5993 6.16245 10.6024 6.16995 10.6067 6.1771C10.9319 6.7169 11.4669 7.11058 12.094 7.27166C12.7211 7.43274 13.3891 7.34806 13.9513 7.03621C14.5135 6.72437 14.9239 6.21085 15.0923 5.60846C15.2608 5.00608 15.1735 4.36407 14.8497 3.82346L14.8497 3.82342L14.8497 3.82339L14.8496 3.82323L14.8493 3.82269C13.7938 2.06658 12.0557 0.78522 10.0171 0.260467C7.97858 -0.264286 5.80659 0.0105435 3.9789 1.0245Z" fill="#FFDC0D"/>
<path d="M5.30448 6.18318L5.30358 6.18172C5.32987 6.13926 5.35195 6.09459 5.3748 6.05027C5.38656 6.02757 5.40004 6.00531 5.41096 5.98238C5.87909 4.97969 5.50377 3.57474 4.40695 2.96625C3.99203 2.73525 3.51535 2.62716 3.03672 2.65553L3.03023 2.65565C2.95708 2.66014 2.88434 2.66827 2.81209 2.67902C2.80766 2.6797 2.80316 2.67986 2.79873 2.68053C2.72737 2.69152 2.65671 2.70605 2.5867 2.72299C2.58163 2.72422 2.57644 2.72494 2.57137 2.7262C2.50161 2.74354 2.4328 2.76433 2.36484 2.7875C2.35983 2.78921 2.35465 2.79044 2.34965 2.79214C2.28184 2.81575 2.21525 2.84273 2.14971 2.87201C2.1449 2.8742 2.1399 2.87586 2.1351 2.87804C2.07013 2.90761 2.00665 2.94045 1.94438 2.97549C1.93936 2.97835 1.93409 2.98069 1.92908 2.98355C1.86794 3.01854 1.80859 3.05675 1.75053 3.09702C1.74485 3.10095 1.73886 3.10437 1.73321 3.10837C1.67678 3.14817 1.62242 3.19114 1.56937 3.23586C1.56271 3.24145 1.55566 3.24649 1.54907 3.25216C1.49827 3.29597 1.44979 3.34279 1.40253 3.391C1.39458 3.39913 1.38608 3.4066 1.37824 3.41484C1.33371 3.46158 1.29174 3.51126 1.25079 3.56205C1.24152 3.57355 1.23158 3.58427 1.2225 3.59601C1.18478 3.64458 1.14981 3.69592 1.11558 3.74794C1.09798 3.77472 1.07865 3.79984 1.06202 3.82749C1.05199 3.8442 1.04449 3.86154 1.03492 3.87836C0.407487 4.93881 0.0547935 6.12875 0.00661139 7.34773L0 18.8267C-1.33261e-06 18.9808 0.0315815 19.1333 0.0929451 19.2757C0.154309 19.4181 0.244251 19.5474 0.357638 19.6564C0.471024 19.7653 0.605634 19.8517 0.753781 19.9107C0.901929 19.9697 1.06071 20 1.22107 20H1.83836C2.64991 20 3.42821 19.6902 4.00206 19.1388C4.57591 18.5874 4.8983 17.8395 4.89831 17.0597V7.60193C4.90573 7.10269 5.04604 6.61358 5.30588 6.1812L5.30575 6.18124L5.30448 6.18318Z" fill="#007AFF"/>
<path d="M14.8719 3.862C14.8911 3.89564 14.9064 3.93029 14.9237 3.96445C14.9396 3.99551 14.9566 4.0263 14.9709 4.05773C14.985 4.08888 14.9966 4.1205 15.0092 4.15201C15.0269 4.19581 15.045 4.23946 15.0598 4.28381C15.0659 4.30217 15.0703 4.32079 15.0758 4.33924C15.0935 4.39705 15.1102 4.45498 15.123 4.51338C15.1239 4.51712 15.1243 4.52084 15.1251 4.52457C15.2427 5.07076 15.1546 5.63935 14.8765 6.1289C14.5983 6.61846 14.1482 6.99714 13.6064 7.19738C13.0647 7.39763 12.4665 7.40642 11.9186 7.22218C11.3708 7.03794 10.9088 6.67266 10.6152 6.19151C10.8807 6.63393 11.02 7.1358 11.0191 7.64649C11.019 8.42222 10.6999 9.16649 10.1314 9.71721C9.56281 10.2679 8.79084 10.5805 7.98357 10.5868C7.97502 10.5867 7.9667 10.5856 7.95811 10.5856C7.30842 10.5855 6.68532 10.8335 6.22589 11.2749C5.76646 11.7163 5.50834 12.315 5.5083 12.9393C5.50826 13.5636 5.76632 14.1623 6.22569 14.6038C6.68507 15.0453 7.30814 15.2933 7.95783 15.2933H7.95807L7.95877 15.2933C9.35173 15.2934 10.7203 14.9421 11.9276 14.2745C13.135 13.6069 14.1388 12.6465 14.8387 11.4892C15.5385 10.3319 15.9099 9.01835 15.9158 7.67986C15.9216 6.34138 15.5616 5.02487 14.8719 3.862V3.862Z" fill="#FF8000"/>
<path d="M129.411 16.104C130.403 16.104 131.307 15.24 131.307 13.728C131.307 12.376 130.675 11.488 129.563 11.488C129.099 11.488 128.627 11.736 128.251 12.064L128.275 11.312V9.624H127.363V16H128.083L128.171 15.544H128.195C128.571 15.904 129.011 16.104 129.411 16.104ZM129.235 15.344C128.963 15.344 128.611 15.24 128.275 14.944V12.792C128.643 12.432 128.979 12.256 129.323 12.256C130.059 12.256 130.355 12.824 130.355 13.744C130.355 14.776 129.875 15.344 129.235 15.344ZM134.226 16.104C134.802 16.104 135.306 15.912 135.714 15.64L135.394 15.056C135.074 15.264 134.738 15.384 134.346 15.384C133.586 15.384 133.058 14.88 132.986 14.04H135.842C135.866 13.936 135.882 13.752 135.882 13.576C135.882 12.328 135.258 11.488 134.09 11.488C133.058 11.488 132.082 12.376 132.082 13.808C132.082 15.256 133.034 16.104 134.226 16.104ZM132.978 13.408C133.066 12.632 133.554 12.208 134.106 12.208C134.746 12.208 135.09 12.648 135.09 13.408H132.978ZM138.311 16.104C138.631 16.104 138.927 16.024 139.175 15.944L139.007 15.264C138.879 15.32 138.687 15.368 138.535 15.368C138.079 15.368 137.895 15.096 137.895 14.568V12.336H139.039V11.6H137.895V10.384H137.119L137.015 11.6L136.335 11.648V12.336H136.975V14.56C136.975 15.488 137.319 16.104 138.311 16.104ZM140.848 16.104C141.376 16.104 141.848 15.84 142.248 15.496H142.272L142.352 16H143.104V13.352C143.104 12.184 142.6 11.488 141.504 11.488C140.8 11.488 140.184 11.776 139.728 12.064L140.072 12.688C140.448 12.448 140.88 12.24 141.344 12.24C141.992 12.24 142.176 12.688 142.184 13.2C140.352 13.4 139.552 13.888 139.552 14.832C139.552 15.608 140.088 16.104 140.848 16.104ZM141.128 15.376C140.736 15.376 140.44 15.2 140.44 14.768C140.44 14.272 140.88 13.944 142.184 13.784V14.864C141.824 15.192 141.512 15.376 141.128 15.376Z" fill="#EB5757"/>
</svg>
