<svg width="20" height="20" viewBox="0 0 20 20" fill="none" xmlns="http://www.w3.org/2000/svg">
<path fill-rule="evenodd" clip-rule="evenodd" d="M8.33333 11.8325L13.8333 6.33252L15 7.49919L8.33333 14.1659L5 10.8325L6.16667 9.66586L8.33333 11.8325Z" fill="#BDBDBD"/>
<path d="M10 1.66667C14.6667 1.66667 18.3333 5.33333 18.3333 10C18.3333 14.6667 14.6667 18.3333 10 18.3333C5.33333 18.3333 1.66667 14.6667 1.66667 10C1.66667 5.33333 5.33333 1.66667 10 1.66667ZM10 0C4.5 0 0 4.5 0 10C0 15.5 4.5 20 10 20C15.5 20 20 15.5 20 10C20 4.5 15.5 0 10 0Z" fill="#BDBDBD"/>
</svg>
