<svg width="18" height="32" viewBox="0 0 18 32" fill="none" xmlns="http://www.w3.org/2000/svg">
<path d="M16.9988 0.00665814L12.8491 0C8.18716 0 5.17438 3.09104 5.17438 7.87524V11.5063H1.0021C0.641566 11.5063 0.349609 11.7985 0.349609 12.1591V17.42C0.349609 17.7806 0.641899 18.0725 1.0021 18.0725H5.17438V31.3475C5.17438 31.708 5.46634 32 5.82687 32H11.2705C11.631 32 11.923 31.7077 11.923 31.3475V18.0725H16.8014C17.1619 18.0725 17.4539 17.7806 17.4539 17.42L17.4559 12.1591C17.4559 11.986 17.3869 11.8202 17.2648 11.6977C17.1426 11.5752 16.9761 11.5063 16.803 11.5063H11.923V8.4282C11.923 6.94876 12.2755 6.19773 14.2027 6.19773L16.9981 6.19673C17.3583 6.19673 17.6503 5.90443 17.6503 5.54423V0.659155C17.6503 0.299283 17.3586 0.00732395 16.9988 0.00665814Z" fill="white"/>
</svg>
