<svg width="34" height="34" viewBox="0 0 34 34" fill="none" xmlns="http://www.w3.org/2000/svg">
<g clip-path="url(#clip0)">
<path d="M25.2344 17C25.2357 18.9378 24.5531 20.8138 23.3068 22.2977C22.0606 23.7815 20.3306 24.7779 18.4217 25.1114C16.5129 25.4448 14.5476 25.0939 12.872 24.1205C11.1965 23.147 9.91832 21.6135 9.26258 19.79L4.55273 23.5579C6.01723 26.3418 8.37228 28.5547 11.2418 29.8433C14.1114 31.1319 17.33 31.4219 20.3837 30.667C23.4373 29.912 26.15 28.1556 28.0885 25.6783C30.027 23.201 31.0796 20.1456 31.0782 17" fill="#00AC47"/>
<path d="M25.2346 17C25.2335 18.3101 24.9194 19.6009 24.3185 20.765C23.7176 21.9291 22.8471 22.9328 21.7798 23.6924L26.4361 27.4174C27.8962 26.1028 29.0639 24.4962 29.8636 22.7017C30.6632 20.9072 31.0771 18.9647 31.0784 17" fill="#4285F4"/>
<path d="M8.76562 17C8.76766 16.0482 8.93583 15.104 9.26256 14.21L4.55271 10.4421C3.48179 12.4621 2.92188 14.7137 2.92188 17C2.92187 19.2863 3.48179 21.5378 4.55271 23.5579L9.26256 19.79C8.93583 18.896 8.76766 17.9518 8.76562 17Z" fill="#FFBA00"/>
<path d="M17 8.76563C18.7424 8.76612 20.4391 9.32292 21.8429 10.3549L26.1567 6.32879C24.5553 4.94813 22.6629 3.94694 20.6205 3.39993C18.5782 2.85291 16.4386 2.7742 14.3616 3.16967C12.2846 3.56513 10.3237 4.42456 8.62523 5.68382C6.92679 6.94308 5.53466 8.56965 4.55273 10.4422L9.26258 14.21C9.83699 12.6177 10.8878 11.2409 12.2722 10.2668C13.6565 9.29273 15.3073 8.76858 17 8.76563Z" fill="#EA4435"/>
<path d="M31.0781 15.9375V17L28.6875 20.7188H17.5312V14.875H30.0156C30.2974 14.875 30.5677 14.9869 30.7669 15.1862C30.9662 15.3855 31.0781 15.6557 31.0781 15.9375Z" fill="#4285F4"/>
</g>
<defs>
<clipPath id="clip0">
<rect width="34" height="34" fill="white"/>
</clipPath>
</defs>
</svg>
