<svg width="14" height="14" viewBox="0 0 14 14" fill="none" xmlns="http://www.w3.org/2000/svg">
<g id="&#236;&#149;&#132;&#236;&#157;&#180;&#236;&#189;&#152;_notice">
<g id="Vector">
<path d="M6.41666 4.08335H7.58332V5.25002H6.41666V4.08335Z" fill="black" fill-opacity="0.54"/>
<path d="M6.41666 6.41669H7.58332V9.91669H6.41666V6.41669Z" fill="black" fill-opacity="0.54"/>
<path fill-rule="evenodd" clip-rule="evenodd" d="M1.16666 7.00002C1.16666 3.78002 3.77998 1.16669 6.99999 1.16669C10.22 1.16669 12.8333 3.78002 12.8333 7.00002C12.8333 10.22 10.22 12.8334 6.99999 12.8334C3.77998 12.8334 1.16666 10.22 1.16666 7.00002ZM2.33332 7.00002C2.33332 9.57252 4.42747 11.6667 6.99999 11.6667C9.57251 11.6667 11.6667 9.57252 11.6667 7.00002C11.6667 4.42752 9.57251 2.33335 6.99999 2.33335C4.42747 2.33335 2.33332 4.42752 2.33332 7.00002Z" fill="black" fill-opacity="0.54"/>
</g>
</g>
</svg>
