<?xml version="1.0" encoding="utf-8"?>
<!-- Generator: Adobe Illustrator 25.0.1, SVG Export Plug-In . SVG Version: 6.00 Build 0)  -->
<svg version="1.1" id="Layer_1" xmlns="http://www.w3.org/2000/svg" xmlns:xlink="http://www.w3.org/1999/xlink" x="0px" y="0px"
	 viewBox="0 0 24 24" style="enable-background:new 0 0 24 24;" xml:space="preserve">
<style type="text/css">
	.st0{fill:#FFFFFF;}
	.st1{fill:#001435;}
	.st2{fill-rule:evenodd;clip-rule:evenodd;fill:none;stroke:#FFFFFF;stroke-width:2;stroke-miterlimit:10;}
	.st3{fill-rule:evenodd;clip-rule:evenodd;fill:#FFFFFF;}
	.st4{fill-rule:evenodd;clip-rule:evenodd;fill:#001435;}
	.st5{fill:#333333;}
	.st6{fill-rule:evenodd;clip-rule:evenodd;fill:#333333;}
	.st7{font-family:'NotoSansCJKkr-Regular-KSCpc-EUC-H';}
	.st8{font-size:3.6913px;}
	.st9{fill:#FFE600;}
	.st10{fill:#F2F2F2;stroke:#E0E0E0;}
	.st11{fill:none;stroke:#FFFFFF;stroke-width:2;stroke-linecap:round;stroke-linejoin:round;stroke-miterlimit:10;}
	.st12{fill-rule:evenodd;clip-rule:evenodd;}
	.st13{fill-rule:evenodd;clip-rule:evenodd;fill:#BDBDBD;}
	.st14{fill-rule:evenodd;clip-rule:evenodd;fill-opacity:0.54;}
	.st15{fill:none;stroke:#333333;stroke-width:1.5;stroke-miterlimit:10;}
	.st16{fill-rule:evenodd;clip-rule:evenodd;fill:none;stroke:#BDBDBD;stroke-miterlimit:10;}
	.st17{fill:url(#SVGID_1_);}
	.st18{fill:#BDBDBD;}
	.st19{fill:none;stroke:#BDBDBD;stroke-width:2;stroke-linecap:round;stroke-linejoin:round;stroke-miterlimit:10;}
	.st20{fill:#333333;stroke:#333333;stroke-width:0.4;stroke-miterlimit:10;}
	.st21{fill:#333333;stroke:#333333;stroke-width:0.5;stroke-linecap:round;stroke-linejoin:round;stroke-miterlimit:10;}
	.st22{fill-rule:evenodd;clip-rule:evenodd;fill:#FFFFFF;fill-opacity:0.54;}
	.st23{fill:#333333;stroke:#333333;stroke-width:0.5;stroke-miterlimit:10;}
	.st24{fill:#FFFFFF;stroke:#FFFFFF;stroke-width:0.5;stroke-miterlimit:10;}
</style>
<text transform="matrix(1 0 0 1 -0.3955 -3.5654)" class="st7 st8">숨기기</text>
<g>
	<circle class="st18" cx="12" cy="12.2" r="2.04"/>
	<path class="st18" d="M2,12.17c0,0,8.98,12.09,20,0C10.98,0.26,2,12.17,2,12.17z M12.31,16.19c-0.14,0.02-0.27,0.03-0.41,0.03
		c-0.52,0-1.01-0.12-1.45-0.32C9,15.28,7.99,13.86,7.99,12.2c0-2.21,1.79-4.01,4.01-4.01s4.01,1.79,4.01,4.01
		C16.01,14.3,14.38,16.03,12.31,16.19z"/>
</g>
<line class="st19" x1="20.33" y1="3.63" x2="4.08" y2="19.88"/>
</svg>
