<svg width="32" height="32" viewBox="0 0 32 32" fill="none" xmlns="http://www.w3.org/2000/svg">
<path d="M26.4791 2.17629e-05H25.5192C24.2567 2.17629e-05 23.0459 0.495551 22.1531 1.37758C21.2604 2.25962 20.7588 3.45591 20.7588 4.7033V19.8423C20.7474 20.6411 20.5295 21.4238 20.1259 22.1161C19.7113 22.83 19.1142 23.4237 18.3944 23.838C17.6746 24.2523 16.8573 24.4726 16.0243 24.4768C15.1913 24.4811 14.3717 24.2691 13.6476 23.8622C12.9235 23.4553 12.3203 22.8676 11.8982 22.158C11.8934 22.1455 11.8873 22.1335 11.8801 22.1221C11.8801 22.0922 11.8468 22.0653 11.8286 22.0354C11.435 21.3447 11.2265 20.5661 11.2229 19.7735C11.221 19.1556 11.3422 18.5434 11.5798 17.9718C11.8174 17.4002 12.1666 16.8805 12.6076 16.4423C13.0485 16.0042 13.5726 15.6561 14.1497 15.4181C14.7268 15.1801 15.3458 15.0568 15.9712 15.0553H16.0106C17.0027 15.0276 17.9448 14.6188 18.6367 13.9157C19.3286 13.2126 19.7157 12.2706 19.7157 11.2899C19.7157 10.3093 19.3286 9.36734 18.6367 8.66422C17.9448 7.9611 17.0027 7.55229 16.0106 7.52465C13.8404 7.52147 11.7076 8.08198 9.8258 9.15C7.94403 10.218 6.3795 11.756 5.28906 13.6098C4.19861 15.4636 3.62056 17.5681 3.61287 19.7122C3.60518 21.8563 4.16812 23.9647 5.24524 25.8261C5.2301 25.7992 5.21798 25.7692 5.20284 25.7423C5.22706 25.7902 5.25432 25.8381 5.28157 25.8859C6.36023 27.7319 7.9085 29.2671 9.7729 30.3395C11.6373 31.412 13.753 31.9843 15.9103 31.9997C18.0676 32.0151 20.1915 31.4731 22.0714 30.4275C23.9513 29.3818 25.522 27.8688 26.6275 26.0385L26.7275 25.877L26.7698 25.7962C27.7444 24.0992 28.2927 22.1959 28.3688 20.2462L28.3869 1.8909C28.3889 1.64254 28.341 1.39626 28.2459 1.16634C28.1508 0.936423 28.0105 0.727446 27.833 0.551544C27.6555 0.375641 27.4445 0.236313 27.212 0.141637C26.9796 0.0469603 26.7305 -0.00117453 26.4791 2.17629e-05Z" fill="white"/>
<path d="M7.85917 8.49275C10.2044 8.49275 12.1055 6.59158 12.1055 4.24637C12.1055 1.90117 10.2044 0 7.85917 0C5.51396 0 3.61279 1.90117 3.61279 4.24637C3.61279 6.59158 5.51396 8.49275 7.85917 8.49275Z" fill="white"/>
</svg>
