<?xml version="1.0" encoding="utf-8"?>
<!-- Generator: Adobe Illustrator 24.1.1, SVG Export Plug-In . SVG Version: 6.00 Build 0)  -->
<!DOCTYPE svg PUBLIC "-//W3C//DTD SVG 1.1//EN" "http://www.w3.org/Graphics/SVG/1.1/DTD/svg11.dtd" [
	<!ENTITY ns_extend "http://ns.adobe.com/Extensibility/1.0/">
	<!ENTITY ns_ai "http://ns.adobe.com/AdobeIllustrator/10.0/">
	<!ENTITY ns_graphs "http://ns.adobe.com/Graphs/1.0/">
	<!ENTITY ns_vars "http://ns.adobe.com/Variables/1.0/">
	<!ENTITY ns_imrep "http://ns.adobe.com/ImageReplacement/1.0/">
	<!ENTITY ns_sfw "http://ns.adobe.com/SaveForWeb/1.0/">
	<!ENTITY ns_custom "http://ns.adobe.com/GenericCustomNamespace/1.0/">
	<!ENTITY ns_adobe_xpath "http://ns.adobe.com/XPath/1.0/">
]>
<svg version="1.1" id="레이어_1" xmlns:x="&ns_extend;" xmlns:i="&ns_ai;" xmlns:graph="&ns_graphs;"
	 xmlns="http://www.w3.org/2000/svg" xmlns:xlink="http://www.w3.org/1999/xlink" x="0px" y="0px" width="14px" height="15px"
	 viewBox="0 0 14 15" style="enable-background:new 0 0 14 15;" xml:space="preserve">
<style type="text/css">
	.st0{fill:#999899;}
</style>
<metadata>
	<sfw  xmlns="&ns_sfw;">
		<slices></slices>
		<sliceSourceBounds  bottomLeftOrigin="true" height="14.8" width="13.6" x="0.2" y="-14.9"></sliceSourceBounds>
	</sfw>
</metadata>
<path class="st0" d="M11.6,9.9c-1-0.2-2,0.3-2.5,1.1l-4-2.2c0.1-0.3,0.2-0.6,0.2-0.9c0-0.3-0.1-0.7-0.2-1l4.3-2.5
	c0.5,0.6,1.3,0.9,2.1,0.8c1.4-0.1,2.4-1.4,2.3-2.8C13.7,1,12.4,0,11,0.1C9.6,0.2,8.6,1.5,8.7,2.9c0,0.3,0.1,0.6,0.3,0.9L4.7,6.2
	c-0.5-0.6-1.2-1-2-1c-1.4,0-2.5,1.1-2.5,2.5s1.1,2.5,2.5,2.5c0.8,0,1.6-0.4,2-1l4,2.2c0,0.1-0.1,0.3-0.1,0.4
	c-0.2,1.4,0.7,2.7,2.1,2.9s2.7-0.7,2.9-2.1S13,10.1,11.6,9.9z"/>
</svg>
