<?xml version="1.0" encoding="utf-8"?>
<!-- Generator: Adobe Illustrator 25.0.1, SVG Export Plug-In . SVG Version: 6.00 Build 0)  -->
<svg version="1.1" id="Layer_1" xmlns="http://www.w3.org/2000/svg" xmlns:xlink="http://www.w3.org/1999/xlink" x="0px" y="0px"
	 viewBox="0 0 24 24" style="enable-background:new 0 0 24 24;" xml:space="preserve">
<style type="text/css">
	.st0{fill-rule:evenodd;clip-rule:evenodd;fill:none;stroke:#FFFFFF;stroke-width:2;stroke-miterlimit:10;}
	.st1{fill:#FFFFFF;}
	.st2{fill-rule:evenodd;clip-rule:evenodd;fill:#FFFFFF;}
	.st3{fill-rule:evenodd;clip-rule:evenodd;fill:#001435;}
	.st4{fill:#333333;}
	.st5{fill-rule:evenodd;clip-rule:evenodd;fill:#333333;}
	.st6{font-family:'NotoSansCJKkr-Regular-KSCpc-EUC-H';}
	.st7{font-size:3.6913px;}
	.st8{fill:#FFE600;}
	.st9{fill:#F2F2F2;stroke:#E0E0E0;}
	.st10{fill:none;stroke:#FFFFFF;stroke-width:2;stroke-linecap:round;stroke-linejoin:round;stroke-miterlimit:10;}
	.st11{fill-rule:evenodd;clip-rule:evenodd;}
	.st12{fill-rule:evenodd;clip-rule:evenodd;fill:#BDBDBD;}
	.st13{fill-rule:evenodd;clip-rule:evenodd;fill-opacity:0.54;}
	.st14{fill:#001435;}
	.st15{fill-rule:evenodd;clip-rule:evenodd;fill:none;stroke:#BDBDBD;stroke-miterlimit:10;}
	.st16{fill:url(#SVGID_1_);}
	.st17{fill:#BDBDBD;}
	.st18{fill:none;stroke:#BDBDBD;stroke-width:2;stroke-linecap:round;stroke-linejoin:round;stroke-miterlimit:10;}
</style>
<text transform="matrix(1 0 0 1 -0.3955 -3.5654)" class="st6 st7">좋아요 전</text>
<path class="st9" d="M12.27,2.66l2.42,5.83c0.13,0.3,0.41,0.51,0.74,0.54l6.29,0.5c0.26,0.02,0.37,0.35,0.17,0.52l-4.79,4.11
	c-0.25,0.21-0.36,0.55-0.28,0.87l1.46,6.14c0.06,0.25-0.22,0.45-0.44,0.32l-5.39-3.29c-0.28-0.17-0.64-0.17-0.92,0l-5.39,3.29
	c-0.22,0.14-0.5-0.06-0.44-0.32l1.46-6.14c0.08-0.32-0.03-0.66-0.28-0.87L2.1,10.04C1.9,9.87,2.01,9.55,2.27,9.53l6.29-0.5
	C8.89,9,9.18,8.79,9.3,8.48l2.42-5.83C11.83,2.41,12.17,2.41,12.27,2.66z"/>
</svg>
