<?xml version="1.0" encoding="utf-8"?>
<!-- Generator: Adobe Illustrator 24.1.1, SVG Export Plug-In . SVG Version: 6.00 Build 0)  -->
<!DOCTYPE svg PUBLIC "-//W3C//DTD SVG 1.1//EN" "http://www.w3.org/Graphics/SVG/1.1/DTD/svg11.dtd" [
	<!ENTITY ns_extend "http://ns.adobe.com/Extensibility/1.0/">
	<!ENTITY ns_ai "http://ns.adobe.com/AdobeIllustrator/10.0/">
	<!ENTITY ns_graphs "http://ns.adobe.com/Graphs/1.0/">
	<!ENTITY ns_vars "http://ns.adobe.com/Variables/1.0/">
	<!ENTITY ns_imrep "http://ns.adobe.com/ImageReplacement/1.0/">
	<!ENTITY ns_sfw "http://ns.adobe.com/SaveForWeb/1.0/">
	<!ENTITY ns_custom "http://ns.adobe.com/GenericCustomNamespace/1.0/">
	<!ENTITY ns_adobe_xpath "http://ns.adobe.com/XPath/1.0/">
]>
<svg version="1.1" id="레이어_1" xmlns:x="&ns_extend;" xmlns:i="&ns_ai;" xmlns:graph="&ns_graphs;"
	 xmlns="http://www.w3.org/2000/svg" xmlns:xlink="http://www.w3.org/1999/xlink" x="0px" y="0px" width="12px" height="11px"
	 viewBox="0 0 12 11" style="enable-background:new 0 0 12 11;" xml:space="preserve">
<style type="text/css">
	.st0{fill:#767777;}
</style>
<metadata>
	<sfw  xmlns="&ns_sfw;">
		<slices></slices>
		<sliceSourceBounds  bottomLeftOrigin="true" height="11" width="12" x="0" y="-11"></sliceSourceBounds>
	</sfw>
</metadata>
<g>
	<g>
		<path class="st0" d="M5.8,9.6C2.6,9.5,0,7.4,0,4.8C0,2.2,2.7,0,6,0c3.3,0,6,2.1,6,4.8c0,1.9-1.3,3.5-3.3,4.3
			c0.2,0.3,0.5,0.7,1.1,1c0.2,0.1,0.3,0.3,0.2,0.5c0,0.2-0.2,0.3-0.4,0.4c0,0-0.1,0-0.3,0l0,0C8.7,11,7.3,10.8,5.8,9.6z M0.9,4.8
			c0,2.1,2.3,3.9,5.1,3.9c0.1,0,0.2,0,0.3,0.1c0.6,0.6,1.2,0.9,1.8,1C7.7,9.4,7.6,9,7.6,9c0-0.1,0-0.2,0-0.4
			c0.1-0.1,0.2-0.2,0.3-0.2c1.9-0.6,3.2-2,3.2-3.6c0-2.1-2.3-3.9-5.1-3.9C3.2,0.9,0.9,2.7,0.9,4.8z"/>
	</g>
	<g>
		<g>
			<path class="st0" d="M7.7,4.8c0,0.5,0.4,0.8,0.8,0.8c0.5,0,0.8-0.4,0.8-0.8C9.4,4.3,9,4,8.6,4C8.1,4,7.7,4.3,7.7,4.8z"/>
		</g>
		<g>
			<path class="st0" d="M5,4.8c0,0.5,0.4,0.8,0.8,0.8c0.5,0,0.8-0.4,0.8-0.8C6.7,4.3,6.3,4,5.9,4C5.4,4,5,4.3,5,4.8z"/>
		</g>
		<g>
			<path class="st0" d="M2.3,4.8c0,0.5,0.4,0.8,0.8,0.8S4,5.3,4,4.8C4,4.3,3.6,4,3.2,4S2.3,4.3,2.3,4.8z"/>
		</g>
	</g>
</g>
</svg>
