<svg width="34" height="34" viewBox="0 0 34 34" fill="none" xmlns="http://www.w3.org/2000/svg">
<g clip-path="url(#clip0)">
<path d="M17 1.41663C7.61175 1.41663 0 7.37796 0 14.7319C0 19.4862 3.18183 23.6583 7.96875 26.0128C5.59158 34.1572 4.19475 34.6871 13.9811 27.8361C14.9614 27.9735 15.9701 28.0457 17 28.0457C26.3882 28.0457 34 22.0844 34 14.7305C34 7.37796 26.3882 1.41663 17 1.41663Z" fill="#3E2723"/>
<path d="M14.7107 11.7158C14.2616 10.4507 12.5446 10.4493 12.0969 11.7143C10.7029 16.038 8.83576 18.7056 9.98326 19.2312C11.5104 19.9239 11.543 18.3656 11.9085 17.6728H14.8991C15.2632 18.3628 15.2986 19.9225 16.8243 19.2312C17.9761 18.7056 16.1316 16.1216 14.7107 11.7158ZM12.4242 15.9473L13.4045 13.1834L14.3834 15.9473H12.4242Z" fill="#FFEB3B"/>
<path d="M7.60062 19.38C5.90345 19.38 6.90645 17.0325 6.62029 12.6621C6.01254 12.5573 4.12695 13.0829 4.12695 11.7087C4.12695 11.1831 4.55904 10.7553 5.08887 10.7553C8.65604 11.0103 11.0729 10.0895 11.0729 11.7087C11.0729 13.107 9.26662 12.5445 8.57954 12.6621C8.2962 17.0184 9.29495 19.38 7.60062 19.38Z" fill="#FFEB3B"/>
<path d="M18.6352 19.2368C16.9933 19.2368 17.992 17.0197 17.6959 11.7271C17.6959 10.4379 19.6977 10.4393 19.6977 11.7271V17.4504C20.6455 17.5765 22.7223 16.9829 22.7223 18.3429C22.7209 19.7695 20.4896 19.0555 18.6352 19.2368Z" fill="#FFEB3B"/>
<path d="M27.7047 18.9549L25.404 15.9275L25.064 16.2661V18.3911C25.064 18.9294 24.6248 19.3658 24.0823 19.3658C22.378 19.3658 23.3994 16.9121 23.1019 11.7271C23.1019 11.1902 23.5411 10.7524 24.0823 10.7524C25.5627 10.7524 24.9238 12.8463 25.0626 13.8209C27.8393 11.1675 27.7727 10.8856 28.3436 10.8856C29.1313 10.8856 29.6143 11.8645 29.0902 12.3844L26.8547 14.6044L29.2687 17.7819C30.0563 18.809 28.4824 19.9863 27.7047 18.9549Z" fill="#FFEB3B"/>
</g>
<defs>
<clipPath id="clip0">
<rect width="34" height="34" fill="white"/>
</clipPath>
</defs>
</svg>
