<svg width="33" height="26" viewBox="0 0 33 26" fill="none" xmlns="http://www.w3.org/2000/svg">
<path d="M32.381 3.078C31.1768 3.6 29.8937 3.946 28.556 4.114C29.9321 3.302 30.9825 2.026 31.4763 0.488C30.1932 1.244 28.7765 1.778 27.2668 2.076C26.0485 0.794 24.312 0 22.4177 0C18.7425 0 15.7837 2.948 15.7837 6.562C15.7837 7.082 15.8282 7.582 15.9375 8.058C10.4186 7.792 5.53512 5.178 2.25452 1.196C1.68179 2.178 1.34583 3.302 1.34583 4.512C1.34583 6.784 2.52976 8.798 4.29452 9.964C3.22798 9.944 2.18167 9.638 1.29524 9.156C1.29524 9.176 1.29524 9.202 1.29524 9.228C1.29524 12.416 3.59631 15.064 6.61381 15.674C6.07345 15.82 5.48452 15.89 4.87333 15.89C4.44833 15.89 4.01929 15.866 3.61655 15.778C4.47667 18.376 6.91738 20.286 9.81952 20.348C7.56095 22.094 4.69321 23.146 1.58869 23.146C1.04429 23.146 0.522143 23.122 0 23.056C2.9406 24.93 6.4256 26 10.1838 26C22.3995 26 29.0781 16 29.0781 7.332C29.0781 7.042 29.068 6.762 29.0538 6.484C30.3713 5.56 31.4783 4.406 32.381 3.078Z" fill="white"/>
</svg>
