<svg width="13" height="16" viewBox="0 0 13 16" fill="none" xmlns="http://www.w3.org/2000/svg">
<path d="M0.0694122 8.43366L0.369149 15.8877C0.425375 15.8908 0.481712 15.8908 0.537938 15.8877C2.22591 15.755 3.50056 13.9767 3.5258 12.2098C3.54473 10.98 3.46271 10.0352 3.41538 8.80538C3.41399 8.77421 3.40656 8.74365 3.39355 8.71551C3.38055 8.68738 3.36222 8.66225 3.33965 8.64163C2.60494 8.03323 1.76932 7.56929 0.873955 7.27266C0.482724 7.13511 0 7.00083 0 7.00083L0.0694122 8.43366Z" fill="white"/>
<path d="M12.3153 0.0121269C10.7851 0.432971 9.62247 2.2408 9.57042 3.91107L9.55307 8.92518C7.61111 6.90611 6.97536 5.93505 5.36153 3.97494C3.56471 1.79539 2.94632 1.17968 0.944416 0.305245C0.0783454 0.0203159 0.0136719 0.837441 0.0136719 0.837441V6.24127L1.21576 6.60644C3.16029 7.22898 4.88241 8.438 6.16293 10.0796C7.05266 11.3078 7.32085 12.084 8.46141 13.7215C9.39689 15.0643 10.9981 15.752 12.1213 15.9862C12.3043 16.0173 12.8706 16.0566 12.8769 15.3607L13 0.834165C13 0.0497907 12.6135 -0.0402739 12.3153 0.0121269Z" fill="white"/>
</svg>
